<svg width="129" height="48" viewBox="0 0 129 48" fill="none" xmlns="http://www.w3.org/2000/svg">
<path d="M13.7061 9.81497C16.9653 7.96781 20.4287 7.03125 24 7.03125C27.5713 7.03125 31.0347 7.96781 34.294 9.81497C34.4035 9.87694 34.5225 9.90647 34.64 9.90647C34.885 9.90647 35.1229 9.77831 35.2524 9.54994C35.4438 9.21206 35.3251 8.78297 34.9873 8.59144C31.514 6.62306 27.8174 5.625 24 5.625C20.1826 5.625 16.486 6.62306 13.0127 8.59153C12.6748 8.78306 12.5562 9.21216 12.7477 9.55003C12.9391 9.88772 13.3682 10.0061 13.7061 9.81497V9.81497Z" fill="black"/>
<path d="M34.2939 38.1849C31.0347 40.0321 27.5713 40.9686 23.9999 40.9686C20.4286 40.9686 16.9652 40.0321 13.706 38.1849C13.3681 37.9936 12.9389 38.1121 12.7475 38.4499C12.5561 38.7877 12.6748 39.2169 13.0125 39.4084C16.486 41.3768 20.1825 42.3749 23.9999 42.3749C27.8173 42.3749 31.5139 41.3768 34.9873 39.4083C35.3251 39.2168 35.4437 38.7877 35.2523 38.4498C35.0608 38.1121 34.6318 37.9936 34.2939 38.1849V38.1849Z" fill="black"/>
<path d="M36.5661 16.0747C32.774 13.8382 28.4287 12.6562 23.9999 12.6562C19.5712 12.6562 15.2259 13.8382 11.4338 16.0747C8.26307 17.9444 5.49726 20.5491 3.43523 23.6069C3.27501 23.8445 3.27501 24.1556 3.43523 24.3932C5.49726 27.451 8.26307 30.0556 11.4338 31.9254C15.2259 34.1617 19.5712 35.3438 23.9999 35.3438C28.4287 35.3438 32.774 34.1617 36.5661 31.9253C39.7368 30.0556 42.5026 27.4509 44.5647 24.3931C44.7249 24.1555 44.7249 23.8444 44.5647 23.6068C42.5026 20.549 39.7368 17.9444 36.5661 16.0747V16.0747ZM33.9374 24C33.9374 29.4795 29.4794 33.9375 23.9999 33.9375C18.5204 33.9375 14.0624 29.4795 14.0624 24C14.0624 18.5205 18.5204 14.0625 23.9999 14.0625C29.4794 14.0625 33.9374 18.5205 33.9374 24ZM12.1481 30.7141C9.29329 29.0305 6.78632 26.7157 4.87223 24C6.78632 21.2843 9.29329 18.9695 12.1481 17.2859C13.6483 16.4012 15.2406 15.6922 16.8919 15.1664C14.3108 17.2475 12.6562 20.4339 12.6562 24C12.6562 27.5661 14.3108 30.7525 16.8919 32.8336C15.2406 32.3078 13.6483 31.5988 12.1481 30.7141V30.7141ZM35.8518 30.7141C34.3516 31.5988 32.7593 32.3078 31.108 32.8336C33.6891 30.7525 35.3437 27.5661 35.3437 24C35.3437 20.4339 33.6891 17.2475 31.108 15.1664C32.7594 15.6922 34.3517 16.4012 35.8518 17.2859C38.7066 18.9695 41.2136 21.2843 43.1277 24C41.2136 26.7157 38.7066 29.0305 35.8518 30.7141Z" fill="black"/>
<path d="M47.9055 23.648C45.5223 19.5266 42.0952 16.0701 37.9948 13.652C33.7702 11.1607 28.9309 9.84375 24 9.84375C19.5607 9.84375 15.3215 10.8663 11.4 12.8831C7.71272 14.7795 4.44703 17.5333 1.94503 20.8544C0.757125 21.4475 0 22.6614 0 24C0 25.3387 0.757125 26.5526 1.94503 27.1456C4.44703 30.4668 7.71262 33.2206 11.4 35.1169C15.3215 37.1337 19.5607 38.1562 24 38.1562C28.9309 38.1562 33.7702 36.8393 37.9948 34.348C42.0952 31.9299 45.5223 28.4734 47.9055 24.352C48.0315 24.1343 48.0315 23.8657 47.9055 23.648ZM24 36.75C15.6325 36.75 7.96622 32.8914 2.96672 26.1637C2.89303 26.0645 2.79441 25.9864 2.68097 25.9375C1.90659 25.6034 1.40625 24.8428 1.40625 24C1.40625 23.1573 1.90659 22.3967 2.68097 22.0625C2.7945 22.0135 2.89303 21.9355 2.96672 21.8363C7.96622 15.1086 15.6325 11.25 24 11.25C33.1852 11.25 41.7608 16.1247 46.481 24C41.7608 31.8753 33.1852 36.75 24 36.75Z" fill="black"/>
<path d="M24 29.7188C27.1534 29.7188 29.7188 27.1534 29.7188 24C29.7188 20.8466 27.1534 18.2812 24 18.2812C23.0398 18.2812 22.0894 18.5245 21.2513 18.9847C20.9109 19.1716 20.7865 19.599 20.9734 19.9394C21.1602 20.2798 21.5876 20.4043 21.9281 20.2174C22.5593 19.8707 23.2758 19.6875 24 19.6875C26.3779 19.6875 28.3125 21.6221 28.3125 24C28.3125 26.3779 26.3779 28.3125 24 28.3125C21.6221 28.3125 19.6875 26.3779 19.6875 24C19.6875 23.2758 19.8707 22.5593 20.2173 21.928C20.4041 21.5876 20.2797 21.1603 19.9393 20.9733C19.5992 20.7864 19.1716 20.9107 18.9846 21.2512C18.5245 22.0894 18.2812 23.0398 18.2812 24C18.2812 27.1534 20.8466 29.7188 24 29.7188Z" fill="black"/>
<path d="M57.376 29V18.44H65.296V20.216H59.584V22.84H64.08V24.536H59.584V27.224H65.52V29H57.376ZM74.4845 21L71.2525 29.496C70.9965 30.2213 70.7085 30.7973 70.3885 31.224C70.0792 31.6613 69.7165 31.9707 69.3005 32.152C68.8952 32.344 68.4098 32.44 67.8445 32.44C67.4285 32.44 67.0445 32.392 66.6925 32.296C66.3512 32.2 66.0525 32.0667 65.7965 31.896L66.2605 30.312C66.6338 30.6107 67.1032 30.76 67.6685 30.76C67.9778 30.76 68.2392 30.696 68.4525 30.568C68.6658 30.44 68.8472 30.184 68.9965 29.8L69.2685 29.112L68.3885 27.032L65.9405 21H68.3725L69.8925 25.8L70.3085 27.4L70.8045 25.704L72.2605 21H74.4845ZM79.3171 29.16C78.0585 29.16 77.0505 28.7973 76.2931 28.072C75.5358 27.336 75.1571 26.312 75.1571 25C75.1571 24.1253 75.3278 23.3787 75.6691 22.76C76.0105 22.1413 76.4851 21.6667 77.0931 21.336C77.7118 21.0053 78.4158 20.84 79.2051 20.84C80.0158 20.84 80.7038 21.0053 81.2691 21.336C81.8345 21.656 82.2665 22.0987 82.5651 22.664C82.8638 23.2187 83.0131 23.8533 83.0131 24.568C83.0131 24.7813 83.0078 24.984 82.9971 25.176C82.9865 25.368 82.9705 25.5387 82.9491 25.688H77.3011C77.3865 26.3067 77.5998 26.7707 77.9411 27.08C78.2931 27.3787 78.7465 27.528 79.3011 27.528C79.7705 27.528 80.1491 27.4373 80.4371 27.256C80.7251 27.0747 80.9491 26.824 81.1091 26.504L82.8531 27.176C82.5971 27.8053 82.1491 28.296 81.5091 28.648C80.8691 28.9893 80.1385 29.16 79.3171 29.16ZM79.1891 22.456C78.1545 22.456 77.5305 23.0267 77.3171 24.168H80.9171C80.8531 23.6133 80.6718 23.192 80.3731 22.904C80.0851 22.6053 79.6905 22.456 79.1891 22.456ZM90.1221 21V22.632H87.5621V26.392C87.5621 26.776 87.6581 27.0587 87.8501 27.24C88.0528 27.4107 88.3248 27.496 88.6661 27.496C88.9435 27.496 89.1781 27.4587 89.3701 27.384C89.5728 27.2987 89.7541 27.1867 89.9141 27.048L90.2661 28.504C89.9995 28.7067 89.6741 28.8667 89.2901 28.984C88.9168 29.1013 88.5168 29.16 88.0901 29.16C87.2901 29.16 86.6341 28.9787 86.1221 28.616C85.6208 28.2427 85.3701 27.6187 85.3701 26.744V22.632H83.8981V21H85.3701V19.16L87.5621 18.552V21H90.1221ZM94.3891 29.16C93.8558 29.16 93.3758 29.064 92.9491 28.872C92.5225 28.68 92.1811 28.376 91.9251 27.96C91.6798 27.544 91.5571 26.9947 91.5571 26.312V21H93.7491V25.784C93.7491 26.4027 93.8771 26.8347 94.1331 27.08C94.3891 27.3147 94.7571 27.432 95.2371 27.432C95.6958 27.432 96.1011 27.2667 96.4531 26.936C96.8158 26.5947 96.9971 26.0507 96.9971 25.304V21H99.1891V29H97.2371L97.1571 27.608C96.8905 28.1307 96.5225 28.52 96.0531 28.776C95.5838 29.032 95.0291 29.16 94.3891 29.16ZM106.2 29.16C105.56 29.16 105.005 28.9947 104.536 28.664C104.077 28.3227 103.736 27.88 103.512 27.336L103.432 29H101.496V17.496H103.688V22.36C103.922 21.912 104.253 21.5493 104.68 21.272C105.117 20.984 105.645 20.84 106.264 20.84C106.904 20.84 107.474 21.0053 107.976 21.336C108.488 21.6667 108.888 22.1467 109.176 22.776C109.474 23.3947 109.624 24.1413 109.624 25.016C109.624 25.8907 109.474 26.6373 109.176 27.256C108.888 27.864 108.482 28.3333 107.96 28.664C107.448 28.9947 106.861 29.16 106.2 29.16ZM105.544 27.48C106.141 27.48 106.605 27.272 106.936 26.856C107.266 26.4293 107.432 25.8107 107.432 25C107.432 24.1893 107.266 23.576 106.936 23.16C106.605 22.7333 106.146 22.52 105.56 22.52C104.994 22.52 104.541 22.7493 104.2 23.208C103.858 23.656 103.688 24.2587 103.688 25.016C103.688 25.7947 103.858 26.4027 104.2 26.84C104.541 27.2667 104.989 27.48 105.544 27.48ZM115.239 29.16C113.98 29.16 112.972 28.7973 112.215 28.072C111.458 27.336 111.079 26.312 111.079 25C111.079 24.1253 111.25 23.3787 111.591 22.76C111.932 22.1413 112.407 21.6667 113.015 21.336C113.634 21.0053 114.338 20.84 115.127 20.84C115.938 20.84 116.626 21.0053 117.191 21.336C117.756 21.656 118.188 22.0987 118.487 22.664C118.786 23.2187 118.935 23.8533 118.935 24.568C118.935 24.7813 118.93 24.984 118.919 25.176C118.908 25.368 118.892 25.5387 118.871 25.688H113.223C113.308 26.3067 113.522 26.7707 113.863 27.08C114.215 27.3787 114.668 27.528 115.223 27.528C115.692 27.528 116.071 27.4373 116.359 27.256C116.647 27.0747 116.871 26.824 117.031 26.504L118.775 27.176C118.519 27.8053 118.071 28.296 117.431 28.648C116.791 28.9893 116.06 29.16 115.239 29.16ZM115.111 22.456C114.076 22.456 113.452 23.0267 113.239 24.168H116.839C116.775 23.6133 116.594 23.192 116.295 22.904C116.007 22.6053 115.612 22.456 115.111 22.456ZM124.505 29.16C123.246 29.16 122.238 28.7973 121.481 28.072C120.723 27.336 120.345 26.312 120.345 25C120.345 24.1253 120.515 23.3787 120.857 22.76C121.198 22.1413 121.673 21.6667 122.281 21.336C122.899 21.0053 123.603 20.84 124.393 20.84C125.203 20.84 125.891 21.0053 126.457 21.336C127.022 21.656 127.454 22.0987 127.753 22.664C128.051 23.2187 128.201 23.8533 128.201 24.568C128.201 24.7813 128.195 24.984 128.185 25.176C128.174 25.368 128.158 25.5387 128.137 25.688H122.489C122.574 26.3067 122.787 26.7707 123.129 27.08C123.481 27.3787 123.934 27.528 124.489 27.528C124.958 27.528 125.337 27.4373 125.625 27.256C125.913 27.0747 126.137 26.824 126.297 26.504L128.041 27.176C127.785 27.8053 127.337 28.296 126.697 28.648C126.057 28.9893 125.326 29.16 124.505 29.16ZM124.377 22.456C123.342 22.456 122.718 23.0267 122.505 24.168H126.105C126.041 23.6133 125.859 23.192 125.561 22.904C125.273 22.6053 124.878 22.456 124.377 22.456Z" fill="black"/>
</svg>
