<svg width="48" height="48" viewBox="0 0 48 48" fill="none" xmlns="http://www.w3.org/2000/svg">
<path d="M19.3333 33.3333C20.6166 33.3333 21.6666 32.2833 21.6666 31V17C21.6666 15.7166 20.6166 14.6666 19.3333 14.6666C18.05 14.6666 17 15.7166 17 17V31C17 32.2833 18.05 33.3333 19.3333 33.3333ZM24 0.666626C11.12 0.666626 0.666626 11.12 0.666626 24C0.666626 36.88 11.12 47.3333 24 47.3333C36.88 47.3333 47.3333 36.88 47.3333 24C47.3333 11.12 36.88 0.666626 24 0.666626ZM24 42.6666C13.71 42.6666 5.33329 34.29 5.33329 24C5.33329 13.71 13.71 5.33329 24 5.33329C34.29 5.33329 42.6666 13.71 42.6666 24C42.6666 34.29 34.29 42.6666 24 42.6666ZM28.6666 33.3333C29.95 33.3333 31 32.2833 31 31V17C31 15.7166 29.95 14.6666 28.6666 14.6666C27.3833 14.6666 26.3333 15.7166 26.3333 17V31C26.3333 32.2833 27.3833 33.3333 28.6666 33.3333Z" fill="#161616"/>
</svg>
