<svg width="56" height="56" viewBox="0 0 56 56" fill="none" xmlns="http://www.w3.org/2000/svg">
<path d="M25.2001 37.1001L36.0968 28.9334C36.7267 28.4667 36.7267 27.5334 36.0968 27.0667L25.2001 18.9001C24.4301 18.3167 23.3334 18.8767 23.3334 19.8334V36.1667C23.3334 37.1234 24.4301 37.6834 25.2001 37.1001ZM28.0001 4.66675C15.1201 4.66675 4.66675 15.1201 4.66675 28.0001C4.66675 40.8801 15.1201 51.3334 28.0001 51.3334C40.8801 51.3334 51.3334 40.8801 51.3334 28.0001C51.3334 15.1201 40.8801 4.66675 28.0001 4.66675ZM28.0001 46.6668C17.7101 46.6668 9.33342 38.2901 9.33342 28.0001C9.33342 17.7101 17.7101 9.33342 28.0001 9.33342C38.2901 9.33342 46.6668 17.7101 46.6668 28.0001C46.6668 38.2901 38.2901 46.6668 28.0001 46.6668Z" fill="#00FFE0"/>
</svg>
