<svg width="24" height="24" viewBox="0 0 24 24" fill="none" xmlns="http://www.w3.org/2000/svg">
<path d="M18.0002 1.01L8.00021 1C6.90021 1 6.00021 1.9 6.00021 3V6C6.00021 6.55 6.45021 7 7.00021 7C7.55021 7 8.00021 6.55 8.00021 6V5H18.0002V19H8.00021V18C8.00021 17.45 7.55021 17 7.00021 17C6.45021 17 6.00021 17.45 6.00021 18V21C6.00021 22.1 6.90021 23 8.00021 23H18.0002C19.1002 23 20.0002 22.1 20.0002 21V3C20.0002 1.9 19.1002 1.01 18.0002 1.01ZM11.0002 15C11.5502 15 12.0002 14.55 12.0002 14V9C12.0002 8.45 11.5502 8 11.0002 8H6.00021C5.45021 8 5.00021 8.45 5.00021 9C5.00021 9.55 5.45021 10 6.00021 10H8.59021L3.70021 14.89C3.31021 15.28 3.31021 15.91 3.70021 16.3C4.09021 16.69 4.72021 16.69 5.11021 16.3L10.0002 11.41V14C10.0002 14.55 10.4502 15 11.0002 15Z" fill="#161616"/>
</svg>
