<svg width="72" height="72" viewBox="0 0 72 72" fill="none" xmlns="http://www.w3.org/2000/svg">
<circle cx="36" cy="36" r="36" fill="#EAEAEA"/>
<path d="M36 26C30.48 26 26 30.48 26 36C26 41.52 30.48 46 36 46C41.52 46 46 41.52 46 36C46 30.48 41.52 26 36 26ZM40 37H37V40C37 40.55 36.55 41 36 41C35.45 41 35 40.55 35 40V37H32C31.45 37 31 36.55 31 36C31 35.45 31.45 35 32 35H35V32C35 31.45 35.45 31 36 31C36.55 31 37 31.45 37 32V35H40C40.55 35 41 35.45 41 36C41 36.55 40.55 37 40 37Z" fill="#161616"/>
</svg>
