<svg width="48" height="48" viewBox="0 0 48 48" fill="none" xmlns="http://www.w3.org/2000/svg">
<g clip-path="url(#clip0_1_281)">
<path d="M44.8531 7.08575H3.1469C1.41173 7.08575 0 8.49748 0 10.2327V26.3385C0 26.7755 0.354145 27.1297 0.791209 27.1297H47.2088C47.6459 27.1297 48 26.7755 48 26.3385V10.2327C48 8.49748 46.5883 7.08575 44.8531 7.08575ZM3.42857 8.66817H44.5714V9.67142C44.5714 10.1944 44.146 10.6198 43.623 10.6198H4.37697C3.85403 10.6198 3.42857 10.1944 3.42857 9.67142V8.66817ZM44.5714 21.5912H3.42857V21.4847C3.42857 20.9618 3.85403 20.5363 4.37697 20.5363H43.623C44.146 20.5363 44.5714 20.9618 44.5714 21.4847V21.5912ZM3.42857 22.6462H44.5714V23.7011H3.42857V22.6462ZM3.42857 24.7561H44.5714V25.5473H3.42857V24.7561ZM46.4176 25.5473H45.6264V21.4847C45.6264 20.3801 44.7277 19.4814 43.623 19.4814H4.37697C3.27223 19.4814 2.37363 20.3801 2.37363 21.4847V25.5473H1.58242V10.2327C1.58242 9.65138 1.90175 9.14406 2.37363 8.87441V9.67142C2.37363 10.7761 3.27233 11.6748 4.37697 11.6748H43.623C44.7278 11.6748 45.6264 10.7761 45.6264 9.67142V8.87441C46.0983 9.14406 46.4176 9.65138 46.4176 10.2327V25.5473Z" fill="black"/>
<path d="M26.4264 17.3715H21.5736C21.2822 17.3715 21.0461 17.6077 21.0461 17.899C21.0461 18.1902 21.2822 18.4264 21.5736 18.4264H26.4264C26.7177 18.4264 26.9538 18.1902 26.9538 17.899C26.9538 17.6077 26.7177 17.3715 26.4264 17.3715Z" fill="black"/>
<path d="M42.3563 17.3716C42.2171 17.3716 42.081 17.4275 41.9829 17.5256C41.8848 17.6237 41.8289 17.7598 41.8289 17.8991C41.8289 18.0383 41.8848 18.1744 41.9829 18.2714C42.081 18.3706 42.2171 18.4265 42.3563 18.4265C42.4945 18.4265 42.6306 18.3706 42.7287 18.2714C42.8268 18.1733 42.8838 18.0373 42.8838 17.8991C42.8838 17.7609 42.8268 17.6248 42.7287 17.5256C42.6306 17.4275 42.4945 17.3716 42.3563 17.3716Z" fill="black"/>
<path d="M39.9301 17.3716C39.7908 17.3716 39.6547 17.4275 39.5566 17.5256C39.4585 17.6237 39.4026 17.7598 39.4026 17.8991C39.4026 18.0383 39.4585 18.1733 39.5566 18.2714C39.6547 18.3696 39.7908 18.4265 39.9301 18.4265C40.0683 18.4265 40.2043 18.3696 40.3025 18.2714C40.4006 18.1733 40.4575 18.0373 40.4575 17.8991C40.4575 17.7598 40.4006 17.6237 40.3025 17.5256C40.2043 17.4275 40.0683 17.3716 39.9301 17.3716Z" fill="black"/>
<path d="M19.6556 30.5873C19.7981 30.3331 19.7076 30.0117 19.4535 29.8692C19.1996 29.7265 18.8779 29.8172 18.7354 30.0712C17.7764 31.7813 17.7763 33.9059 18.7353 35.6161C19.5155 37.0078 19.5155 38.7369 18.7353 40.1287C18.5927 40.3829 18.6834 40.7043 18.9374 40.8468C19.0189 40.8926 19.1075 40.9144 19.1948 40.9144C19.3794 40.9144 19.5587 40.8173 19.6554 40.6447C20.6141 38.9347 20.6141 36.8102 19.6554 35.1002C18.8751 33.7082 18.8752 31.9791 19.6556 30.5873Z" fill="black"/>
<path d="M24.46 30.5873C24.6026 30.3331 24.512 30.0117 24.2579 29.8692C24.004 29.7265 23.6823 29.8172 23.5398 30.0712C22.5809 31.7813 22.5808 33.9059 23.5397 35.6161C24.3199 37.0078 24.3199 38.7369 23.5397 40.1287C23.3972 40.3829 23.4878 40.7043 23.7418 40.8468C23.8234 40.8926 23.9119 40.9144 23.9992 40.9144C24.1839 40.9144 24.3631 40.8173 24.4598 40.6447C25.4186 38.9347 25.4186 36.8102 24.4598 35.1002C23.6795 33.7082 23.6796 31.9791 24.46 30.5873Z" fill="black"/>
<path d="M29.2648 30.5873C29.4073 30.3331 29.3168 30.0117 29.0627 29.8692C28.8086 29.7265 28.4871 29.8172 28.3446 30.0712C27.3855 31.7813 27.3855 33.9059 28.3443 35.6161C29.1247 37.0079 29.1247 38.7369 28.3443 40.1287C28.2018 40.3828 28.2923 40.7043 28.5465 40.8468C28.628 40.8926 28.7165 40.9144 28.8039 40.9144C28.9885 40.9144 29.1677 40.8173 29.2645 40.6447C30.2233 38.9347 30.2233 36.8102 29.2645 35.1002C28.4842 33.7083 28.4842 31.9791 29.2648 30.5873Z" fill="black"/>
</g>
<defs>
<clipPath id="clip0_1_281">
<rect width="48" height="48" fill="white"/>
</clipPath>
</defs>
</svg>
