<svg width="84" height="16" viewBox="0 0 84 16" fill="none" xmlns="http://www.w3.org/2000/svg">
<line x1="8" y1="7.5" x2="76" y2="7.5" stroke="#D0D0D0" stroke-dasharray="4 4"/>
<path d="M39.867 14.3199L43.0003 8.99992L46.667 8.99992C47.2203 8.99992 47.667 8.55325 47.667 7.99992C47.667 7.44659 47.2203 6.99992 46.667 6.99992L43.0003 6.99992L39.867 1.67992C39.747 1.46658 39.5137 1.33325 39.267 1.33325C38.8003 1.33325 38.467 1.77992 38.5937 2.22658L39.9937 6.99992L36.3337 6.99992L35.4337 5.49325C35.3737 5.39325 35.2603 5.33325 35.147 5.33325L34.8137 5.33325L34.7603 5.33325C34.5403 5.33325 34.3803 5.53992 34.4337 5.74658L34.9203 7.69325L35.0003 7.99992L34.9403 8.25325L34.867 8.53325L34.547 9.79992L34.4337 10.2466C34.3803 10.4599 34.5403 10.6599 34.7603 10.6599L35.007 10.6599L35.147 10.6599C35.267 10.6599 35.3737 10.5999 35.4337 10.4999L36.3337 8.99992L40.0003 8.99992L38.6003 13.7733C38.467 14.2199 38.8003 14.6666 39.267 14.6666C39.5137 14.6666 39.747 14.5333 39.867 14.3199Z" fill="#161616"/>
<circle cx="4" cy="8" r="3.25" stroke="#525252" stroke-width="1.5"/>
<circle cx="80" cy="8" r="3.25" stroke="#525252" stroke-width="1.5"/>
</svg>
