<svg width="48" height="48" viewBox="0 0 48 48" fill="none" xmlns="http://www.w3.org/2000/svg">
<g clip-path="url(#clip0_1_271)">
<path d="M30.5203 43.9453H17.4798C17.0935 43.9453 16.7805 44.2584 16.7805 44.6446C16.7805 45.0308 17.0935 45.3439 17.4798 45.3439H30.5203C30.9066 45.3439 31.2196 45.0308 31.2196 44.6446C31.2196 44.2584 30.9066 43.9453 30.5203 43.9453Z" fill="black"/>
<path d="M26.7078 29.602C29.4728 31.5532 33.2686 30.1019 35.2183 27.3389C37.1995 24.5314 37.2481 20.5027 34.4982 18.5622C32.6767 17.2768 29.6174 16.7837 27.1565 17.3344C26.9097 16.9629 26.5993 16.6373 26.2407 16.3733C26.6504 15.53 27.3741 14.767 29.0147 13.9536C29.8008 13.5639 30.7791 13.0789 30.7791 11.7824C30.7791 8.29329 27.2722 6.13367 24.0231 6.13367C20.2978 6.13367 17.2672 8.66764 17.2672 11.7824C17.2672 13.3256 18.0221 15.3815 19.1905 17.02C19.5594 17.5373 19.9512 17.9942 20.3588 18.3846C20.2861 18.6391 20.2392 18.9041 20.2215 19.1771C19.2191 19.0918 18.2677 18.6297 17.0936 17.6814L17.0774 17.6683C16.402 17.1228 15.5617 16.4438 14.3839 16.9856C11.2927 18.407 10.6624 22.413 12.0743 25.4836C13.1628 27.8509 15.4861 29.7064 17.9938 29.7063C18.6958 29.7063 19.3837 29.5585 20.0289 29.2617C22.1593 28.2821 24.2596 25.5946 24.9031 23.1019C25.0708 23.0607 25.2339 23.008 25.3921 22.9453C25.9864 23.8483 26.2583 24.9311 25.9508 26.9084C25.8161 27.7754 25.6484 28.8544 26.7078 29.602ZM24 21.813C22.6829 21.813 21.6112 20.7414 21.6112 19.4242C21.6112 18.107 22.6829 17.0355 24 17.0355C25.3172 17.0355 26.3888 18.107 26.3888 19.4242C26.3888 20.7414 25.3172 21.813 24 21.813ZM20.3293 16.208C19.3343 14.8128 18.6658 13.0341 18.6658 11.7824C18.6658 9.43892 21.0691 7.53232 24.0231 7.53232C27.3322 7.53232 29.3805 9.73845 29.3805 11.7824C29.3805 12.1608 29.1821 12.3096 28.3936 12.7007C26.6617 13.5592 25.605 14.501 24.9834 15.7672C24.6696 15.6828 24.3401 15.6369 23.9999 15.6369C22.7984 15.6369 21.7267 16.2 21.0323 17.0752C20.7915 16.8154 20.5563 16.5263 20.3293 16.208ZM19.4447 27.9911C17.1148 29.0628 14.4422 27.2854 13.3452 24.8993C12.2551 22.5289 12.6169 19.3375 14.9683 18.2563C15.3198 18.0947 15.5282 18.2147 16.1985 18.7562L16.2149 18.7694C17.7176 19.9831 19.0013 20.5477 20.3967 20.5888C20.8322 21.9331 21.9997 22.9507 23.4272 23.1682C22.7308 25.2822 20.8954 27.324 19.4447 27.9911ZM27.7874 19.4242C27.7874 19.159 27.7597 18.9002 27.7076 18.6502C29.7279 18.279 32.2724 18.7032 33.6919 19.7049C35.7971 21.1906 35.5932 24.382 34.0756 26.5324C32.5613 28.6781 29.6138 29.9408 27.5141 28.4592C27.2049 28.2409 27.1977 27.9931 27.3329 27.1233C27.6595 25.0232 27.4402 23.5416 26.5732 22.1999C27.3193 21.5077 27.7874 20.5198 27.7874 19.4242Z" fill="black"/>
<path d="M40.578 19.469C40.578 15.6142 39.2256 11.8596 36.77 8.89678C36.5234 8.59931 36.0825 8.55825 35.7853 8.80462C35.488 9.05109 35.4467 9.4919 35.6932 9.78928C37.9413 12.5017 39.1795 15.9394 39.1795 19.469C39.1795 27.8389 32.37 34.6483 24.0001 34.6483C20.4746 34.6483 17.0398 33.4127 14.3288 31.169C14.0312 30.9229 13.5905 30.9643 13.3441 31.2619C13.0979 31.5594 13.1396 32.0002 13.437 32.2464C16.3984 34.6972 20.1497 36.047 24.0001 36.047C33.1411 36.047 40.578 28.6101 40.578 19.469Z" fill="black"/>
<path d="M8.82068 19.4692C8.82068 11.0993 15.6301 4.28983 24 4.28983C27.4747 4.28983 30.7441 5.43217 33.4548 7.5932C33.757 7.83405 34.1969 7.78427 34.4376 7.48239C34.6783 7.18042 34.6287 6.74045 34.3268 6.4997C31.3657 4.13898 27.7948 2.89127 24 2.89127C14.8589 2.89127 7.42212 10.3281 7.42212 19.4692C7.42212 23.2639 8.66984 26.8348 11.0306 29.7958C11.1686 29.9691 11.3722 30.0593 11.5778 30.0593C11.7306 30.0593 11.8844 30.0094 12.0132 29.9067C12.3153 29.666 12.3649 29.226 12.1242 28.924C9.96303 26.2133 8.82068 22.9438 8.82068 19.4692Z" fill="black"/>
<path d="M32.0228 41.4337H30.3214L29.3825 38.1807C37.5081 35.8398 43.469 28.3377 43.469 19.4691C43.4691 8.73375 34.7354 0 24.0001 0C13.2648 0 4.53101 8.73375 4.53101 19.4691C4.53101 28.3378 10.492 35.8399 18.6176 38.1808L17.6787 41.4338H15.9773C13.4519 41.4338 11.1538 42.9234 10.1226 45.2288C9.54026 46.5309 10.4943 48.0001 11.9191 48.0001H36.0812C37.5077 48.0001 38.4592 46.5292 37.8776 45.2288C36.8464 42.9233 34.5483 41.4337 32.0228 41.4337ZM5.92957 19.4691C5.92957 9.50503 14.0359 1.39866 24 1.39866C33.964 1.39866 42.0704 9.50503 42.0704 19.4691C42.0704 29.4331 33.9641 37.5395 24.0001 37.5395C14.036 37.5395 5.92957 29.4331 5.92957 19.4691ZM19.9758 38.5188C21.2748 38.7929 22.6207 38.938 24.0001 38.938C25.3794 38.938 26.7255 38.7928 28.0245 38.5187L28.8658 41.4336H19.1344L19.9758 38.5188ZM36.0812 46.6014H11.9191C11.5065 46.6014 11.231 46.1763 11.3994 45.7998C12.2057 43.9971 14.0027 42.8323 15.9773 42.8323H32.0228C33.9975 42.8323 35.7945 43.9972 36.6007 45.7998C36.7692 46.1764 36.4936 46.6014 36.0812 46.6014Z" fill="black"/>
</g>
<defs>
<clipPath id="clip0_1_271">
<rect width="48" height="48" fill="white"/>
</clipPath>
</defs>
</svg>
