<svg width="43" height="48" viewBox="0 0 43 48" fill="none" xmlns="http://www.w3.org/2000/svg">
<path d="M26.7284 4.64455C26.379 4.47323 25.9569 4.6176 25.7857 4.96692C25.6145 5.31624 25.7587 5.73826 26.1082 5.90959C28.7607 7.21031 30.7193 9.58558 31.4815 12.4264C31.5825 12.8024 31.9692 13.0251 32.3445 12.9242C32.7204 12.8234 32.9432 12.437 32.8425 12.0612C31.9746 8.82748 29.7461 6.12421 26.7284 4.64455Z" fill="black"/>
<path d="M3.83229 14.9264C3.83229 14.5373 3.51697 14.2219 3.12783 14.2219H0.704466C0.315319 14.2219 0 14.5373 0 14.9264C0 15.3154 0.315319 15.6308 0.704466 15.6308H3.12783C3.51688 15.6308 3.83229 15.3154 3.83229 14.9264Z" fill="black"/>
<path d="M4.31923 9.84308L2.05349 8.98316C1.68998 8.84527 1.28299 9.02806 1.14492 9.39184C1.00684 9.75563 1.18982 10.1624 1.5536 10.3004L3.81935 11.1603C4.1836 11.2984 4.59003 11.1151 4.72792 10.7516C4.86599 10.388 4.68302 9.98115 4.31923 9.84308Z" fill="black"/>
<path d="M3.81931 18.6923L1.55356 19.5522C1.18978 19.6903 1.0069 20.0971 1.14488 20.4608C1.28277 20.8244 1.68929 21.0076 2.05345 20.8695L4.3192 20.0096C4.68298 19.8715 4.86586 19.4647 4.72788 19.101C4.5899 18.7372 4.183 18.5544 3.81931 18.6923Z" fill="black"/>
<path d="M41.7642 14.2219H39.3407C38.9515 14.2219 38.6362 14.5373 38.6362 14.9264C38.6362 15.3154 38.9515 15.6308 39.3407 15.6308H41.7642C42.1533 15.6308 42.4686 15.3154 42.4686 14.9264C42.4686 14.5373 42.1532 14.2219 41.7642 14.2219Z" fill="black"/>
<path d="M38.6492 11.1603L40.9149 10.3004C41.2787 10.1623 41.4616 9.75554 41.3236 9.39185C41.1856 9.02797 40.7786 8.84528 40.415 8.98317L38.1493 9.84309C37.7855 9.98116 37.6026 10.388 37.7406 10.7517C37.8785 11.1152 38.285 11.2983 38.6492 11.1603Z" fill="black"/>
<path d="M40.915 19.5522L38.6492 18.6923C38.2856 18.5544 37.8786 18.7372 37.7406 19.101C37.6025 19.4648 37.7855 19.8716 38.1493 20.0096L40.4151 20.8695C40.7793 21.0076 41.1857 20.8242 41.3236 20.4608C41.4616 20.0971 41.2787 19.6903 40.915 19.5522Z" fill="black"/>
<path d="M22.8002 1.40473C29.1622 2.11324 34.2148 7.03707 35.0872 13.3785C35.14 13.7626 35.4938 14.0333 35.881 13.9804C36.2665 13.9274 36.5359 13.5719 36.4829 13.1865C36.0207 9.82628 34.4231 6.66502 31.9844 4.28506C29.5417 1.90096 26.3353 0.380722 22.9561 0.00434968C22.5693 -0.0384818 22.221 0.239829 22.178 0.626533C22.1349 1.01324 22.4134 1.36162 22.8002 1.40473Z" fill="black"/>
<path d="M35.9278 15.8681C35.5419 15.8355 35.1991 16.1223 35.1659 16.5099C34.783 20.9867 32.24 25.0336 28.3632 27.3353C27.3743 27.9224 26.7599 28.9948 26.7599 30.134V32.9151H23.7785V27.315C23.7785 26.9915 23.8875 26.6723 24.0853 26.4163L25.0935 25.1111C25.4807 24.6097 25.694 23.9846 25.694 23.351V18.2574C26.083 18.2572 26.3981 17.9419 26.3981 17.5529C26.3981 17.1639 26.083 16.8486 25.694 16.8484V16.7716C25.694 16.3825 25.3787 16.0671 24.9896 16.0671C24.6004 16.0671 24.2851 16.3825 24.2851 16.7716V16.8483H18.1835V16.7716C18.1835 16.3825 17.8682 16.0671 17.479 16.0671C17.0899 16.0671 16.7746 16.3825 16.7746 16.7716V16.8483C16.3856 16.8485 16.0704 17.1638 16.0704 17.5528C16.0704 17.9418 16.3856 18.2571 16.7746 18.2573V23.3509C16.7746 23.9845 16.9879 24.6096 17.3751 25.111L18.3833 26.4161C18.581 26.6722 18.6901 26.9914 18.6901 27.3149V32.915H15.7088V30.134C15.7088 28.9921 15.1038 27.9252 14.1298 27.3496C9.88575 24.8414 7.24936 20.2251 7.24926 15.3022C7.24917 8.17252 12.5885 2.19819 19.6691 1.40534C20.0557 1.36204 20.334 1.01347 20.2907 0.626856C20.2474 0.240246 19.9 -0.038253 19.5122 0.00514204C15.7788 0.4235 12.3286 2.20138 9.79698 5.01163C7.2455 7.84396 5.84024 11.4986 5.84033 15.3025C5.84052 20.9168 8.85657 25.8699 13.4129 28.5627C13.9599 28.886 14.2997 29.4882 14.2997 30.1342V33.3177C13.8522 33.6663 13.5626 34.2087 13.5626 34.8186V35.8591C13.5626 36.3133 13.723 36.7304 13.9895 37.058C13.723 37.3856 13.5626 37.8027 13.5626 38.2569V39.2975C13.5626 40.0479 14.0001 40.6963 14.6325 41.006C14.549 41.2201 14.5014 41.452 14.5014 41.6953V42.7358C14.5014 43.7853 15.3552 44.6392 16.4048 44.6392H17.6901C17.7883 46.509 19.3404 48.0001 21.2343 48.0001C23.1281 48.0001 24.6802 46.5089 24.7784 44.6392H26.0637C27.1133 44.6392 27.9671 43.7854 27.9671 42.7358V41.6953C27.9671 41.452 27.9195 41.2201 27.836 41.006C28.4683 40.6963 28.9059 40.0479 28.9059 39.2975V38.2569C28.9059 37.8028 28.7455 37.3857 28.479 37.058C28.7455 36.7305 28.9059 36.3134 28.9059 35.8591V34.8186C28.9059 34.2086 28.6163 33.6662 28.1688 33.3177V30.1341C28.1688 29.4897 28.5189 28.8815 29.0825 28.5469C33.3492 26.0135 36.1482 21.5587 36.5697 16.63C36.6028 16.2423 36.3154 15.9013 35.9278 15.8681ZM18.4902 24.25C18.2925 23.994 18.1835 23.6748 18.1835 23.3512V18.2576H24.2851V23.3512C24.2851 23.6748 24.1762 23.994 23.9784 24.2499L22.9703 25.5552C22.5829 26.0566 22.3696 26.6817 22.3696 27.3152V32.9153H20.0989V27.3152C20.0989 26.6817 19.8856 26.0566 19.4982 25.5552L18.4902 24.25ZM21.2342 46.5911C20.1175 46.5911 19.1978 45.7315 19.1022 44.6392H23.3663C23.2707 45.7314 22.351 46.5911 21.2342 46.5911ZM26.5582 42.7358C26.5582 43.0084 26.3364 43.2303 26.0637 43.2303C24.8887 43.2303 17.2721 43.2303 16.4048 43.2303C16.1322 43.2303 15.9103 43.0085 15.9103 42.7358V41.6953C15.9103 41.4227 16.1321 41.2009 16.4048 41.2009H26.0637C26.3363 41.2009 26.5582 41.4226 26.5582 41.6953V42.7358ZM27.497 39.2975C27.497 39.5702 27.2752 39.7919 27.0025 39.7919C26.4636 39.7919 15.806 39.7919 15.466 39.7919C15.1934 39.7919 14.9715 39.5702 14.9715 39.2975V38.2569C14.9715 37.9844 15.1933 37.7625 15.466 37.7625H27.0025C27.2751 37.7625 27.497 37.9843 27.497 38.2569V39.2975ZM27.497 35.8591C27.497 36.1317 27.2752 36.3536 27.0025 36.3536H15.466C15.1934 36.3536 14.9715 36.1318 14.9715 35.8591V34.8186C14.9715 34.538 15.2069 34.3241 15.466 34.3241H27.0025C27.273 34.3241 27.497 34.5479 27.497 34.8186V35.8591Z" fill="black"/>
</svg>
