<svg width="24" height="24" viewBox="0 0 24 24" fill="none" xmlns="http://www.w3.org/2000/svg">
<g clip-path="url(#clip0_943_6313)">
<path d="M15.4996 13.9996H14.7096L14.4296 13.7296C15.6296 12.3296 16.2496 10.4196 15.9096 8.38965C15.4396 5.60965 13.1196 3.38965 10.3196 3.04965C6.08965 2.52965 2.52965 6.08965 3.04965 10.3196C3.38965 13.1196 5.60965 15.4396 8.38965 15.9096C10.4196 16.2496 12.3296 15.6296 13.7296 14.4296L13.9996 14.7096V15.4996L18.2496 19.7496C18.6596 20.1596 19.3296 20.1596 19.7396 19.7496C20.1496 19.3396 20.1496 18.6696 19.7396 18.2596L15.4996 13.9996ZM9.49965 13.9996C7.00965 13.9996 4.99965 11.9896 4.99965 9.49965C4.99965 7.00965 7.00965 4.99965 9.49965 4.99965C11.9896 4.99965 13.9996 7.00965 13.9996 9.49965C13.9996 11.9896 11.9896 13.9996 9.49965 13.9996Z" fill="#161616"/>
</g>
<defs>
<clipPath id="clip0_943_6313">
<rect width="24" height="24" fill="white"/>
</clipPath>
</defs>
</svg>
