<svg width="24" height="24" viewBox="0 0 24 24" fill="none" xmlns="http://www.w3.org/2000/svg">
<g clip-path="url(#clip0_943_6316)">
<path d="M18 6H16C16 3.79 14.21 2 12 2C9.79 2 8 3.79 8 6H6C4.9 6 4 6.9 4 8V20C4 21.1 4.9 22 6 22H18C19.1 22 20 21.1 20 20V8C20 6.9 19.1 6 18 6ZM10 10C10 10.55 9.55 11 9 11C8.45 11 8 10.55 8 10V8H10V10ZM12 4C13.1 4 14 4.9 14 6H10C10 4.9 10.9 4 12 4ZM16 10C16 10.55 15.55 11 15 11C14.45 11 14 10.55 14 10V8H16V10Z" fill="#161616"/>
</g>
<defs>
<clipPath id="clip0_943_6316">
<rect width="24" height="24" fill="white"/>
</clipPath>
</defs>
</svg>
