<svg width="48" height="48" viewBox="0 0 48 48" fill="none" xmlns="http://www.w3.org/2000/svg">
<g clip-path="url(#clip0_1_263)">
<path d="M37.6563 16.125V2.57442C37.6555 1.90333 37.3885 1.25996 36.914 0.78543C36.4395 0.310901 35.7961 0.0439611 35.125 0.0431671H12.8748C12.2037 0.0439611 11.5603 0.310901 11.0858 0.78543C10.6112 1.25996 10.3443 1.90333 10.3435 2.57442V16.125C10.3437 16.4788 10.4184 16.8285 10.5626 17.1516C10.7068 17.4746 10.9173 17.7637 11.1805 18C10.9173 18.2364 10.7068 18.5255 10.5626 18.8485C10.4184 19.1715 10.3437 19.5213 10.3435 19.875V42.7988C10.3443 43.4699 10.6112 44.1133 11.0858 44.5878C11.5603 45.0623 12.2037 45.3292 12.8748 45.33H13.2186V47.3438C13.2186 47.5178 13.2878 47.6848 13.4108 47.8078C13.5339 47.9309 13.7008 48 13.8749 48H18.5624C18.7364 48 18.9033 47.9309 19.0264 47.8078C19.1495 47.6848 19.2186 47.5178 19.2186 47.3438V45.33H28.7811V47.3438C28.7811 47.5178 28.8503 47.6848 28.9733 47.8078C29.0964 47.9309 29.2633 48 29.4374 48H34.1249C34.2989 48 34.4658 47.9309 34.5889 47.8078C34.712 47.6848 34.7811 47.5178 34.7811 47.3438V45.33H35.125C35.7961 45.3292 36.4395 45.0623 36.914 44.5878C37.3885 44.1133 37.6555 43.4699 37.6563 42.7988V19.875C37.656 19.5213 37.5814 19.1715 37.4372 18.8485C37.293 18.5255 37.0825 18.2364 36.8193 18C37.0825 17.7637 37.293 17.4746 37.4372 17.1516C37.5814 16.8285 37.656 16.4788 37.6563 16.125ZM17.9061 46.6875H14.5311V45.33H17.9061V46.6875ZM33.4686 46.6875H30.0936V45.33H33.4686V46.6875ZM36.3438 19.875V42.7988C36.3434 43.1219 36.2148 43.4317 35.9864 43.6601C35.7579 43.8886 35.4481 44.0171 35.125 44.0175H12.8748C12.5516 44.0171 12.2419 43.8886 12.0134 43.6601C11.7849 43.4317 11.6564 43.1219 11.656 42.7988V19.875C11.6564 19.5519 11.7849 19.2422 12.0134 19.0137C12.2419 18.7852 12.5516 18.6567 12.8748 18.6563H35.125C35.4481 18.6567 35.7579 18.7852 35.9864 19.0137C36.2148 19.2422 36.3434 19.5519 36.3438 19.875ZM12.8748 17.3438C12.5516 17.3434 12.2419 17.2149 12.0134 16.9864C11.7849 16.7579 11.6564 16.4482 11.656 16.125V2.57442C11.6564 2.25131 11.7849 1.94154 12.0134 1.71307C12.2419 1.4846 12.5516 1.35606 12.8748 1.35567H35.125C35.4481 1.35606 35.7579 1.4846 35.9864 1.71307C36.2148 1.94154 36.3434 2.25131 36.3438 2.57442V16.125C36.3434 16.4482 36.2148 16.7579 35.9864 16.9864C35.7579 17.2149 35.4481 17.3434 35.125 17.3438H12.8748Z" fill="black"/>
<path d="M33.2468 4.75572H30.8093C30.6353 4.75572 30.4684 4.82486 30.3453 4.94793C30.2222 5.071 30.1531 5.23792 30.1531 5.41197V13.287C30.1531 13.461 30.2222 13.6279 30.3453 13.751C30.4684 13.8741 30.6353 13.9432 30.8093 13.9432H33.2468C33.4209 13.9432 33.5878 13.8741 33.7109 13.751C33.8339 13.6279 33.9031 13.461 33.9031 13.287V5.41197C33.9031 5.23792 33.8339 5.071 33.7109 4.94793C33.5878 4.82486 33.4209 4.75572 33.2468 4.75572ZM32.5906 12.6307H31.4656V6.06822H32.5906V12.6307Z" fill="black"/>
<path d="M30.8093 30.2841H33.2468C33.4209 30.2841 33.5878 30.2149 33.7109 30.0918C33.8339 29.9688 33.9031 29.8019 33.9031 29.6278V21.7528C33.9031 21.5787 33.8339 21.4118 33.7109 21.2888C33.5878 21.1657 33.4209 21.0965 33.2468 21.0965H30.8093C30.6353 21.0965 30.4684 21.1657 30.3453 21.2888C30.2222 21.4118 30.1531 21.5787 30.1531 21.7528V29.6278C30.1531 29.8019 30.2222 29.9688 30.3453 30.0918C30.4684 30.2149 30.6353 30.2841 30.8093 30.2841ZM31.4656 22.409H32.5906V28.9716H31.4656V22.409Z" fill="black"/>
</g>
<defs>
<clipPath id="clip0_1_263">
<rect width="48" height="48" fill="white"/>
</clipPath>
</defs>
</svg>
