<svg width="48" height="48" viewBox="0 0 48 48" fill="none" xmlns="http://www.w3.org/2000/svg">
<path d="M45.6211 17.9278H44.6675V14.3836C44.6675 12.2883 42.9629 10.5838 40.8677 10.5838H27.0967C25.8201 10.5838 24.6893 11.2172 24 12.1856C23.3107 11.2171 22.1799 10.5838 20.9033 10.5838H12.2519C11.8636 10.5838 11.5488 10.8986 11.5488 11.2869C11.5488 11.6752 11.8636 11.99 12.2519 11.99H20.9033C22.2232 11.99 23.2969 13.0637 23.2969 14.3836V21.4157C23.2822 21.4016 23.2666 21.3884 23.2517 21.3744C22.4183 20.5973 21.2887 20.1494 20.1485 20.1494H8.43647C8.3745 19.2053 7.73091 18.375 6.84281 18.0601C6.59259 17.9715 6.32803 17.9278 6.06262 17.9278H4.73878V14.3836C4.73878 13.0637 5.8125 11.99 7.13231 11.99H9.43941C9.82772 11.99 10.1425 11.6752 10.1425 11.2869C10.1425 10.8986 9.82772 10.5838 9.43941 10.5838H7.13231C5.03709 10.5838 3.33253 12.2883 3.33253 14.3836V17.9278H2.37891C1.06716 17.9278 0 18.9951 0 20.3067V27.6483C0 30.38 2.22244 32.6025 4.95413 32.6025H5.30747C5.30747 32.6025 4.53759 34.6732 4.53703 34.6748C4.05131 35.9811 5.05106 37.4161 6.4425 37.4161H7.57369C8.20687 37.4161 8.81297 37.1146 9.195 36.6096L12.226 32.6025H35.7742L38.8052 36.6097C39.1872 37.1146 39.7933 37.4161 40.4264 37.4161C40.4264 37.4161 41.5568 37.4161 41.5575 37.4161C42.9506 37.4161 43.9486 35.9808 43.463 34.6748L42.6924 32.6025H43.0459C45.7776 32.6025 48 30.38 48 27.6483V20.3067C48 18.9951 46.9328 17.9278 45.6211 17.9278ZM24.7031 14.3837C24.7031 13.0638 25.7768 11.9901 27.0967 11.9901H40.8677C42.1875 11.9901 43.2612 13.0638 43.2612 14.3836V17.9279C43.2612 17.9279 41.9377 17.9279 41.9373 17.9279C41.0024 17.9279 40.1056 18.5279 39.743 19.3887C39.6414 19.6297 39.5806 19.8886 39.5635 20.1496C39.5635 20.1496 27.8519 20.1496 27.8515 20.1496C26.6937 20.1496 25.5397 20.6154 24.7031 21.4159V14.3837ZM8.44162 21.5557H20.1485C21.8845 21.5558 23.2969 22.9681 23.2969 24.7042V25.7041H8.44162V21.5557ZM8.07347 35.7613C7.95572 35.917 7.76878 36.0099 7.57359 36.0099C7.57359 36.0099 6.44634 36.0099 6.44241 36.0099C6.01191 36.0099 5.70506 35.5682 5.85506 35.1649L6.80775 32.6025H10.4627L8.07347 35.7613ZM41.5575 36.0098H40.4264C40.2312 36.0098 40.0444 35.9169 39.9266 35.7613L37.5373 32.6025H41.1922C41.1922 32.6025 42.1417 35.1559 42.1449 35.1648C42.2952 35.5691 41.9862 36.0098 41.5575 36.0098ZM43.0459 31.1962H4.95413C2.99784 31.1963 1.40625 29.6046 1.40625 27.6483V20.3067C1.40625 19.7703 1.84256 19.334 2.37891 19.334H6.06262C6.59897 19.334 7.03528 19.7703 7.03528 20.3067V26.4071C7.03528 26.7954 7.35009 27.1102 7.73841 27.1102H33.5644C33.9527 27.1102 34.2675 26.7954 34.2675 26.4071C34.2675 26.0188 33.9527 25.704 33.5644 25.704H24.7031V24.7041C24.7031 22.9681 26.1155 21.5557 27.8515 21.5557H39.5584V25.7041H36.3769C35.9886 25.7041 35.6737 26.0189 35.6737 26.4072C35.6737 26.7955 35.9886 27.1103 36.3769 27.1103H40.2615C40.6498 27.1103 40.9646 26.7955 40.9646 26.4072V20.3068C40.9646 19.7704 41.4009 19.3341 41.9373 19.3341H45.621C46.1573 19.3341 46.5937 19.7704 46.5937 20.3068V27.6483H46.5938C46.5938 29.6046 45.0022 31.1962 43.0459 31.1962Z" fill="black"/>
</svg>
