<svg width="26" height="26" viewBox="0 0 26 26" fill="none" xmlns="http://www.w3.org/2000/svg">
<path d="M5.03753 10.1292L2.92503 12.2417C2.50253 12.6642 2.50253 13.3467 2.92503 13.7692L5.03753 15.8817C5.56836 16.4125 6.4242 16.4125 6.95503 15.8817C7.47503 15.3509 7.47503 14.5059 6.95503 13.975L6.0017 13L6.95503 12.0359C7.47503 11.505 7.47503 10.66 6.95503 10.1292C6.43503 9.59836 5.56836 9.59836 5.03753 10.1292ZM19.045 10.1292C18.525 10.66 18.525 11.505 19.045 12.0359L19.9984 13L19.045 13.9642C18.525 14.495 18.525 15.34 19.045 15.8709C19.5759 16.4017 20.4317 16.4017 20.9625 15.8709L23.075 13.7584C23.4975 13.3359 23.4975 12.6534 23.075 12.2309L20.9625 10.1184C20.4317 9.59836 19.565 9.59836 19.045 10.1292ZM13 19.9984L12.0359 19.045C11.505 18.525 10.66 18.525 10.1292 19.045C9.59836 19.5759 9.59836 20.4317 10.1292 20.9625L12.2417 23.075C12.6642 23.4975 13.3467 23.4975 13.7692 23.075L15.8817 20.9625C16.4125 20.4317 16.4125 19.5759 15.8817 19.045C15.3509 18.525 14.5059 18.525 13.975 19.045L13 19.9984ZM10.1292 6.95503C10.66 7.47503 11.505 7.47503 12.0359 6.95503L13 6.0017L13.9642 6.95503C14.495 7.47503 15.34 7.47503 15.8709 6.95503C16.4017 6.4242 16.4017 5.56836 15.8709 5.03753L13.7584 2.92503C13.3359 2.50253 12.6534 2.50253 12.2309 2.92503L10.1292 5.03753C9.59836 5.56836 9.59836 6.43503 10.1292 6.95503Z" fill="#161616"/>
<path d="M13 16.25C14.7949 16.25 16.25 14.7949 16.25 13C16.25 11.2051 14.7949 9.75 13 9.75C11.2051 9.75 9.75 11.2051 9.75 13C9.75 14.7949 11.2051 16.25 13 16.25Z" fill="#161616"/>
</svg>
