<svg width="26" height="26" viewBox="0 0 26 26" fill="none" xmlns="http://www.w3.org/2000/svg">
<path d="M22.7498 7.58337H20.5832V5.41671C20.5832 4.82087 20.0957 4.33337 19.4998 4.33337H6.49984C5.904 4.33337 5.4165 4.82087 5.4165 5.41671V7.58337H3.24984C2.654 7.58337 2.1665 8.07087 2.1665 8.66671V20.5834C2.1665 21.1792 2.654 21.6667 3.24984 21.6667H9.74984C10.3457 21.6667 10.8332 21.1792 10.8332 20.5834V17.3334H15.1665V20.5834C15.1665 21.1792 15.654 21.6667 16.2498 21.6667H22.7498C23.3457 21.6667 23.8332 21.1792 23.8332 20.5834V8.66671C23.8332 8.07087 23.3457 7.58337 22.7498 7.58337ZM11.9165 9.75004C11.9165 10.3459 11.429 10.8334 10.8332 10.8334H9.74984V11.9167H11.3748C11.6782 11.9167 11.9165 12.155 11.9165 12.4584C11.9165 12.7617 11.6782 13 11.3748 13H9.74984C9.154 13 8.6665 12.5125 8.6665 11.9167V10.8334C8.6665 10.2375 9.154 9.75004 9.74984 9.75004H10.8332V8.66671H9.20817C8.90484 8.66671 8.6665 8.42837 8.6665 8.12504C8.6665 7.82171 8.90484 7.58337 9.20817 7.58337H10.8332C11.429 7.58337 11.9165 8.07087 11.9165 8.66671V9.75004ZM17.3332 12.4584C17.3332 12.7617 17.0948 13 16.7915 13C16.4882 13 16.2498 12.7617 16.2498 12.4584V10.8334H15.1665C14.5707 10.8334 14.0832 10.3459 14.0832 9.75004V8.12504C14.0832 7.82171 14.3215 7.58337 14.6248 7.58337C14.9282 7.58337 15.1665 7.82171 15.1665 8.12504V9.75004H16.2498V8.12504C16.2498 7.82171 16.4882 7.58337 16.7915 7.58337C17.0948 7.58337 17.3332 7.82171 17.3332 8.12504V12.4584Z" fill="#161616"/>
</svg>
