<svg width="26" height="26" viewBox="0 0 26 26" fill="none" xmlns="http://www.w3.org/2000/svg">
<path d="M16.25 11.9167V6.31589C16.25 5.74173 16.0225 5.18923 15.6108 4.78839L13.7583 2.93589C13.3358 2.51339 12.6533 2.51339 12.2308 2.93589L10.3892 4.77756C9.9775 5.18923 9.75 5.74173 9.75 6.31589V7.58339H5.41667C4.225 7.58339 3.25 8.55839 3.25 9.75006V20.5834C3.25 21.7751 4.225 22.7501 5.41667 22.7501H20.5833C21.775 22.7501 22.75 21.7751 22.75 20.5834V14.0834C22.75 12.8917 21.775 11.9167 20.5833 11.9167H16.25ZM7.58333 20.5834H5.41667V18.4167H7.58333V20.5834ZM7.58333 16.2501H5.41667V14.0834H7.58333V16.2501ZM7.58333 11.9167H5.41667V9.75006H7.58333V11.9167ZM14.0833 20.5834H11.9167V18.4167H14.0833V20.5834ZM14.0833 16.2501H11.9167V14.0834H14.0833V16.2501ZM14.0833 11.9167H11.9167V9.75006H14.0833V11.9167ZM14.0833 7.58339H11.9167V5.41673H14.0833V7.58339ZM20.5833 20.5834H18.4167V18.4167H20.5833V20.5834ZM20.5833 16.2501H18.4167V14.0834H20.5833V16.2501Z" fill="#161616"/>
</svg>
