<svg width="24" height="24" viewBox="0 0 24 24" fill="none" xmlns="http://www.w3.org/2000/svg">
<path d="M11 3.1802V20.8202C11 21.4602 10.41 21.9402 9.79 21.8002C5.32 20.8002 2 16.7902 2 12.0002C2 7.2102 5.32 3.2002 9.79 2.2002C10.41 2.0602 11 2.5402 11 3.1802ZM13.03 3.1802V9.9902C13.03 10.5402 13.48 10.9902 14.03 10.9902H20.82C21.46 10.9902 21.94 10.4002 21.8 9.7702C20.95 6.0102 18 3.0502 14.25 2.2002C13.62 2.0602 13.03 2.5402 13.03 3.1802ZM13.03 14.0102V20.8202C13.03 21.4602 13.62 21.9402 14.25 21.8002C18.01 20.9502 20.96 17.9802 21.81 14.2202C21.95 13.6002 21.46 13.0002 20.83 13.0002H14.04C13.48 13.0102 13.03 13.4602 13.03 14.0102Z" fill="#161616"/>
</svg>
