<svg width="36" height="36" viewBox="0 0 36 36" fill="none" xmlns="http://www.w3.org/2000/svg">
<path d="M27.9356 22.08C27.0015 22.08 26.1101 22.2655 25.2954 22.6007L23.8213 19.8837L25.6603 16.4942H27.1076C27.8581 16.4942 28.4687 17.1048 28.4687 17.8554C28.4687 18.2696 28.8046 18.6056 29.2189 18.6056C29.6332 18.6056 29.9691 18.2696 29.9691 17.8554C29.9691 16.2775 28.6854 14.9938 27.1076 14.9938H25.3938L20.9311 12.7206C20.9668 12.4921 20.9863 12.2704 20.9849 12.0552C20.9733 10.1909 19.465 9.25038 18.3319 8.70527C17.423 8.26752 16.6472 8.05469 15.9604 8.05469C13.7188 8.05469 12.6514 10.2767 11.4158 12.8488C10.1865 15.4012 9.86851 16.9653 10.3183 18.2472C10.5908 19.024 11.1376 19.6492 12.0172 20.1813L10.7046 22.6007C9.88997 22.2654 8.99849 22.08 8.06439 22.08C4.22667 22.08 1.10449 25.2022 1.10449 29.0399C1.10449 32.8776 4.22674 35.9998 8.06439 35.9998C11.6486 35.9998 14.6084 33.2763 14.9838 29.7902H17.8724L18.8122 30.1195C18.8943 30.1483 18.978 30.1619 19.0603 30.1619C19.3701 30.1619 19.6601 29.9685 19.7683 29.6595C19.9053 29.2685 19.6994 28.8405 19.3084 28.7035L19.0795 28.6233L22.9677 21.4568L23.9776 23.3183C22.165 24.5759 20.9755 26.6715 20.9755 29.0399C20.9755 32.8776 24.0977 35.9998 27.9354 35.9998C31.7732 35.9998 34.8954 32.8777 34.8954 29.0399C34.8955 25.2022 31.7732 22.08 27.9356 22.08ZM12.7679 13.4992C14.0853 10.7569 14.7854 9.55512 15.9605 9.55512C16.4168 9.55512 16.9796 9.71934 17.6813 10.0572C19.1875 10.7819 19.4576 11.4106 19.4824 11.9826L17.6973 11.0733C17.3281 10.8851 16.8764 11.032 16.6883 11.4013C16.5002 11.7704 16.6471 12.2221 17.0163 12.4102L19.1767 13.5107C18.9232 14.2251 18.5294 15.066 18.058 16.0449C17.3022 17.6178 16.6531 18.6096 16.008 19.1334H13.2278C12.3973 18.7239 11.9211 18.2833 11.7341 17.7503C11.4387 16.9084 11.7575 15.5974 12.7679 13.4992ZM13.3594 20.8539C15.0067 21.6822 16.0177 22.6426 16.44 23.7769C16.8886 24.9821 16.6959 26.4723 15.8671 28.2062C15.854 28.2335 15.8432 28.2615 15.8336 28.2898H14.9838C14.7623 26.2327 13.6409 24.4414 12.0222 23.3183L13.3594 20.8539ZM13.4712 28.2898H9.32513L11.3015 24.647C12.4579 25.5013 13.2655 26.8006 13.4712 28.2898ZM8.06454 34.4994C5.05415 34.4994 2.605 32.0503 2.605 29.0399C2.605 26.0296 5.05415 23.5805 8.06454 23.5805C8.73974 23.5805 9.38627 23.7046 9.98367 23.9296L7.4051 28.6822C7.27899 28.9147 7.28462 29.1964 7.41981 29.4237C7.55507 29.6509 7.80002 29.7902 8.06447 29.7902H13.4711C13.1043 32.4467 10.8202 34.4994 8.06454 34.4994ZM17.6452 28.1207L17.5553 28.0892C18.2712 26.2826 18.3694 24.6588 17.8461 23.2534C17.5116 22.3548 16.9304 21.5547 16.0898 20.8411C16.2284 20.7819 16.3631 20.7125 16.4944 20.6339H21.7073L17.6452 28.1207ZM22.5214 19.1335H18.0252C18.5099 18.4576 18.96 17.6324 19.4102 16.6954C19.8594 15.7624 20.2439 14.9396 20.521 14.1956L24.1872 16.0631L22.5214 19.1335ZM27.9356 34.4994C24.9253 34.4994 22.4761 32.0503 22.4761 29.0399C22.4761 27.2405 23.3516 25.6421 24.6986 24.6469L27.2762 29.3976C27.4121 29.6482 27.67 29.7902 27.9363 29.7902C28.0571 29.7902 28.1797 29.7609 28.2934 29.6993C28.6575 29.5017 28.7926 29.0463 28.595 28.6821L26.0165 23.9295C26.6139 23.7044 27.2605 23.5803 27.9357 23.5803C30.946 23.5803 33.3952 26.0295 33.3952 29.0398C33.3951 32.0503 30.946 34.4994 27.9356 34.4994Z" fill="black"/>
<path d="M15.5409 3.71387L15.952 3.8444C15.8306 4.72816 15.9825 5.62579 16.4014 6.43355C16.9369 7.466 17.8424 8.22844 18.9513 8.58029C19.388 8.71893 19.8304 8.7848 20.2659 8.7848C22.1138 8.7848 23.8331 7.59841 24.4213 5.7453C24.7726 4.63828 24.6717 3.45962 24.1373 2.4265C23.6021 1.39188 22.6963 0.628156 21.5868 0.276079C21.0096 0.0928767 20.3961 0 19.7633 0C17.5078 0 15.5707 1.1398 15.0528 2.77182C14.9925 2.96148 15.0102 3.16726 15.1017 3.34394C15.1932 3.52061 15.3512 3.6537 15.5409 3.71387ZM19.4051 7.15023C18.6781 6.91946 18.0844 6.41967 17.7334 5.74275C17.5003 5.29337 17.3936 4.80146 17.415 4.30871L22.6683 5.97599C21.9868 7.0314 20.6585 7.54777 19.4051 7.15023ZM19.7633 1.50043C20.2419 1.50043 20.7028 1.56968 21.133 1.70614C21.8601 1.93691 22.4537 2.43753 22.8047 3.11587C23.0368 3.56472 23.1444 4.05529 23.1235 4.54623L16.8844 2.56611C17.4807 1.92873 18.5793 1.50043 19.7633 1.50043Z" fill="black"/>
</svg>
