<svg width="24" height="24" viewBox="0 0 24 24" fill="none" xmlns="http://www.w3.org/2000/svg">
<path d="M21.576 6.04795C20.856 6.35995 20.112 6.57595 19.32 6.67195C20.136 6.19195 20.76 5.42395 21.048 4.48795C20.28 4.94395 19.44 5.25595 18.552 5.44795C17.832 4.67995 16.8 4.19995 15.672 4.19995C13.488 4.19995 11.736 5.97595 11.736 8.13595C11.736 8.44795 11.76 8.73595 11.832 9.02395C8.56798 8.87995 5.68798 7.29595 3.74398 4.91995C2.35198 7.41595 3.91198 9.47995 4.94398 10.176C4.31998 10.176 3.69598 9.98395 3.16798 9.69595C3.16798 11.64 4.53598 13.248 6.31198 13.608C5.92798 13.728 5.06398 13.8 4.53598 13.68C5.03998 15.24 6.50398 16.392 8.20798 16.416C6.86398 17.472 4.89598 18.3119 2.37598 18.0479C4.12798 19.1759 6.19198 19.8239 8.42398 19.8239C15.672 19.8239 19.608 13.824 19.608 8.63995C19.608 8.47195 19.608 8.30395 19.584 8.13595C20.4 7.53595 21.072 6.83995 21.576 6.04795Z" fill="black"/>
</svg>
