<svg width="191" height="254" viewBox="0 0 191 254" fill="none" xmlns="http://www.w3.org/2000/svg">
<g filter="url(#filter0_d_6_566)">
<rect x="16" y="12" width="159" height="222" rx="8" fill="#F4F4F4"/>
</g>
<path d="M145.99 208.499C145.99 215.403 140.397 220.998 133.495 220.998C126.593 220.998 121 215.402 121 208.499C121 201.596 126.595 196 133.495 196C140.396 196 145.99 201.596 145.99 208.499Z" fill="#E2574C"/>
<path d="M148.501 196C145.699 196 143.119 196.934 141.034 198.492L141.044 198.494C141.454 198.89 141.907 199.169 142.255 199.625L139.656 199.666C139.248 200.077 138.877 200.525 138.527 200.99H143.112C143.46 201.408 143.783 201.772 144.075 202.234H137.696C137.462 202.637 137.246 203.051 137.057 203.481H144.802C145.004 203.909 145.185 204.233 145.339 204.687H136.599C136.46 205.118 136.341 205.559 136.251 206.009H145.705C145.798 206.442 145.869 206.841 145.918 207.249H136.063C136.022 207.66 136.001 208.078 136.001 208.499H145.989C145.989 208.941 145.958 209.351 145.913 209.749H136.063C136.106 210.173 136.168 210.589 136.251 210.999H145.69C145.593 211.404 145.48 211.811 145.339 212.234H136.57C136.702 212.661 136.864 213.076 137.04 213.481H144.802C144.587 213.936 144.343 214.3 144.074 214.726H137.674C137.926 215.163 138.205 215.581 138.507 215.981L143.112 216.049C142.719 216.521 142.216 216.804 141.757 217.217C141.782 217.237 141.023 217.214 139.529 217.191C141.802 219.535 144.978 220.998 148.501 220.998C155.404 220.998 161 215.402 161 208.499C161 201.596 155.405 196 148.501 196Z" fill="#F4B459"/>
<g clip-path="url(#clip0_6_566)">
<path d="M38.5484 33.516V30.1289C38.5484 29.645 38.3548 29.1612 37.1935 29.1612V28.8708H41.4516V29.1612C40.2903 29.1612 40.0968 29.645 40.0968 30.1289V37.7741C40.0968 38.2579 40.2903 38.7418 41.4516 38.7418V39.0321H37.1935V38.7418C38.3548 38.7418 38.5484 38.2579 38.5484 37.7741V34.0967H33.9032V37.7741C33.9032 38.2579 34.0968 38.7418 35.2581 38.7418V39.0321H31V38.7418C32.1613 38.7418 32.3548 38.2579 32.3548 37.7741V30.1289C32.3548 29.645 32.1613 29.1612 31 29.1612V28.8708H35.2581V29.1612C34.0968 29.1612 33.9032 29.645 33.9032 30.1289V33.516H38.5484Z" fill="#231F20"/>
<path d="M41.7417 35.935H42.1288C42.6127 37.3866 43.6772 38.6446 45.3223 38.6446C46.5804 38.6446 47.3546 37.5801 47.0643 36.4188C46.4836 34.2898 42.2256 34.193 42.2256 31.2898C42.2256 29.7414 43.3869 28.7737 44.9352 28.7737C46.5804 28.7737 47.2578 29.935 47.6449 28.7737H47.9352L48.2256 32.064H47.8385C47.4514 30.6124 46.4836 29.4511 45.032 29.4511C44.1611 29.4511 43.3869 29.935 43.3869 30.9027C43.3869 31.7737 44.3546 32.4511 45.032 32.8382C47.0643 34.0963 48.5159 34.7737 48.5159 36.6124C48.5159 37.9672 47.3546 39.4188 45.3223 39.4188C43.774 39.4188 42.6127 38.2575 42.5159 39.4188H42.2256L41.7417 35.935Z" fill="#231F20"/>
<path d="M53.6454 33.4192C55.1938 33.4192 56.0647 32.7418 56.0647 31.4838C56.0647 30.3225 55.2905 29.7418 54.226 29.5483C52.7744 29.4515 52.2905 29.4515 52.2905 29.9354V33.4192H53.6454ZM52.3873 37.5805C52.3873 38.1612 52.4841 38.3547 53.6454 38.3547C55.1938 38.3547 56.4518 37.8708 56.4518 36.1289C56.4518 34.2902 54.6131 33.9999 53.1615 33.9999H52.3873V37.5805ZM50.8389 30.1289C50.8389 29.645 50.6454 29.1612 49.3873 29.1612V28.8708H53.4518C55.7744 28.8708 57.6131 29.4515 57.6131 31.4838C57.6131 32.7418 56.7421 33.4192 55.5808 33.7096C56.9357 33.9999 58.097 34.7741 58.097 36.2257C58.097 38.0644 56.5486 39.0321 54.1292 39.0321H49.2905V38.7418C50.5486 38.7418 50.7421 38.2579 50.7421 37.7741V30.1289H50.8389Z" fill="#231F20"/>
<path d="M67.3872 32.0642H67.0001C66.5162 30.419 65.4517 29.2577 63.7098 29.2577C61.1937 29.2577 60.1291 31.29 60.1291 33.9997C60.1291 36.1287 61.2904 38.4513 63.7098 38.4513C65.1614 38.4513 66.2259 37.9674 67.2904 36.9029L67.5808 37.1932C66.613 38.3545 65.0646 39.1287 63.613 39.1287C60.613 39.1287 58.3872 37.1932 58.3872 33.9029C58.3872 30.9029 60.5162 28.5803 63.613 28.5803C65.742 28.5803 66.4195 29.8384 67.0001 28.5803H67.2904L67.3872 32.0642Z" fill="#231F20"/>
<path d="M85.8709 28.5803H75.6128V38.8384H85.8709V28.5803Z" fill="white"/>
<path d="M85.8709 33.8066H75.6128V38.9357H85.8709V33.8066Z" fill="#DAEAE7"/>
<path d="M75.6128 28.5803H85.8709L80.7418 33.7094L75.6128 28.5803Z" fill="#EE3725"/>
<path d="M75.6128 38.8385H85.8709L80.7418 33.7095L75.6128 38.8385Z" fill="#EE3725"/>
<path d="M75.6129 28.5803V38.8384L70.4839 33.7094L75.6129 28.5803Z" fill="#FF6700"/>
<path d="M75.6129 30.5159V38.8385L70.4839 33.7094L75.6129 30.5159Z" fill="#EE3725"/>
<path d="M85.8711 28.5803V38.8384L91.0001 33.7094L85.8711 28.5803Z" fill="#FF6700"/>
<path d="M85.8711 30.5159V38.8385L91.0001 33.7094L85.8711 30.5159Z" fill="#EE3725"/>
<path d="M77.4515 30.419H84.0322L85.8709 28.5803H75.6128L77.4515 30.419Z" fill="#FF6700"/>
<path d="M85.8711 36.5164V38.8389L88.1937 36.5164H85.8711Z" fill="#D60F05"/>
<path d="M75.6133 38.8389H85.8713L83.5488 36.5164H77.9359L75.6133 38.8389Z" fill="#D60F05"/>
<path d="M73.2905 36.5164L75.6131 38.8389V36.5164H73.2905Z" fill="#D60F05"/>
<path d="M66.9034 28.5803C66.4196 29.8384 65.6454 28.5803 63.5163 28.5803C60.5163 28.5803 58.3873 30.8061 58.2905 33.7094H60.0325C60.1292 31.0965 61.1938 29.161 63.6131 29.161C65.355 29.161 66.5163 30.3223 66.9034 31.9674H67.2905L67.1938 28.5803H66.9034Z" fill="#4D5655"/>
<path d="M53.4517 28.8708H49.3872V29.1612C50.6453 29.1612 50.8388 29.645 50.8388 30.1289V33.7096H55.7743C55.6775 33.7096 55.6775 33.7096 55.5808 33.7096C56.7421 33.4192 57.613 32.8386 57.613 31.4838C57.7098 29.5483 55.8711 28.8708 53.4517 28.8708ZM53.6453 33.4192H52.3872V29.9354C52.3872 29.3547 52.8711 29.4515 54.3227 29.5483C55.3872 29.7418 56.1614 30.4192 56.1614 31.4838C56.1614 32.7418 55.1937 33.4192 53.6453 33.4192Z" fill="#4D5655"/>
<path d="M47.6449 28.6771C47.2578 29.8384 46.5804 28.6771 44.9353 28.6771C43.4836 28.6771 42.2256 29.7416 42.2256 31.1932C42.2256 32.3545 42.903 33.1287 43.8707 33.7094H46.9675C46.4836 33.419 45.903 33.0319 45.2256 32.6448C44.5482 32.2577 43.5804 31.5803 43.5804 30.7094C43.5804 29.7416 44.2578 29.2577 45.2256 29.2577C46.6772 29.2577 47.6449 30.419 48.032 31.8706H48.4191L48.1288 28.5803H47.6449V28.6771Z" fill="#4D5655"/>
<path d="M37.1935 29.1612C38.3548 29.1612 38.5484 29.645 38.5484 30.1289V33.516H33.9032V30.1289C33.9032 29.645 34.0968 29.1612 35.2581 29.1612V28.8708H31V29.1612C32.1613 29.1612 32.3548 29.645 32.3548 30.1289V33.7096H40.0968V30.1289C40.0968 29.645 40.2903 29.1612 41.4516 29.1612V28.8708H37.1935V29.1612Z" fill="#4D5655"/>
</g>
<g clip-path="url(#clip1_6_566)">
<path d="M-83.9999 125.938C-83.9957 129.666 -82.5128 133.24 -79.8765 135.877C-77.2402 138.513 -73.6657 139.996 -69.9374 140H-67.4803C-72.1181 146.143 -74.6264 153.631 -74.6249 161.328V182.884L-83.5546 197.767C-83.9546 198.434 -84.0918 199.226 -83.9393 199.988L-77.6893 231.238C-77.5476 231.946 -77.1649 232.584 -76.6062 233.042C-76.0475 233.5 -75.3473 233.75 -74.6249 233.75H-49.6249C-48.7961 233.75 -48.0012 233.421 -47.4152 232.835C-46.8291 232.249 -46.4999 231.454 -46.4999 230.625V224.375C-46.5027 221.889 -47.4913 219.507 -49.2488 217.749C-51.0064 215.991 -53.3893 215.003 -55.8749 215H-59.5628L-61.6331 204.66C-57.4553 203.277 -53.4313 201.466 -49.6249 199.258V202.5C-49.6249 202.937 -49.5332 203.37 -49.3557 203.769L-36.8557 231.894C-36.6102 232.447 -36.2098 232.916 -35.7029 233.245C-35.196 233.575 -34.6044 233.75 -33.9999 233.75H-8.99988C-8.17108 233.75 -7.37622 233.421 -6.79017 232.835C-6.20412 232.249 -5.87488 231.454 -5.87488 230.625V224.375C-5.87767 221.889 -6.86629 219.507 -8.62383 217.749C-10.3814 215.991 -12.7643 215.003 -15.2499 215H-19.2475L-24.2343 200.039L-11.0975 184.273L2.94153 186.826C3.12587 186.859 3.31282 186.875 3.50012 186.875H10.313L19.1857 231.238C19.3273 231.946 19.7101 232.584 20.2688 233.042C20.8275 233.5 21.5277 233.75 22.2501 233.75H62.8751C63.7039 233.75 64.4988 233.421 65.0848 232.835C65.6709 232.249 66.0001 231.454 66.0001 230.625V224.375C65.9973 221.889 65.0087 219.507 63.2512 217.749C61.4936 215.991 59.1107 215.003 56.6251 215H53.5001V194.035L73.3896 162.78C73.6251 162.41 73.9361 162.093 74.3022 161.851C74.6684 161.609 75.0814 161.446 75.5146 161.374L87.4677 159.379C89.2701 159.081 90.9461 158.262 92.2887 157.024C93.6314 155.785 94.5821 154.18 95.0235 152.407L97.1052 144.087L103.277 128.66C103.532 128.022 103.57 127.317 103.384 126.656C103.198 125.994 102.8 125.412 102.25 125L90.1798 115.946L84.3349 107.179L81.6251 101.763C80.3353 99.161 78.3421 96.9725 75.8717 95.4458C73.4014 93.919 70.5526 93.115 67.6485 93.125H44.4728C37.4357 93.118 30.653 95.7564 25.4704 100.517L-3.96551 127.5H-21.3436L-35.6643 126.066C-44.9289 125.154 -54.1815 127.913 -61.4339 133.75H-69.9374C-72.0094 133.75 -73.9965 132.927 -75.4616 131.462C-76.9268 129.997 -77.7499 128.01 -77.7499 125.938C-77.7499 123.865 -76.9268 121.878 -75.4616 120.413C-73.9965 118.948 -72.0094 118.125 -69.9374 118.125H-27.2136C-23.0203 118.133 -18.8962 117.056 -15.2417 115C-9.44349 114.991 -3.88539 112.684 0.213783 108.583C4.31296 104.482 6.61861 98.9232 6.62511 93.125C6.62511 92.2962 6.29588 91.5013 5.70983 90.9153C5.12378 90.3292 4.32892 90 3.50012 90C-1.8912 90.0069 -7.09059 92.0019 -11.1029 95.603C-15.1151 99.2041 -17.6584 104.158 -18.246 109.518C-20.9798 111.069 -24.0704 111.881 -27.2136 111.875H-69.9374C-73.6657 111.879 -77.2402 113.362 -79.8765 115.998C-82.5128 118.635 -83.9957 122.209 -83.9999 125.938ZM-30.1507 197.375C-30.4914 197.784 -30.722 198.273 -30.8206 198.796C-30.9193 199.319 -30.8827 199.858 -30.7143 200.363L-24.4643 219.113C-24.2569 219.735 -23.859 220.277 -23.327 220.66C-22.7949 221.044 -22.1557 221.25 -21.4999 221.25H-15.2499C-14.4214 221.251 -13.6271 221.58 -13.0412 222.166C-12.4554 222.752 -12.1258 223.546 -12.1249 224.375V227.5H-31.9686L-43.3749 201.836V195.132C-38.0219 191.154 -33.3231 186.365 -29.4487 180.937L-18.1628 182.989L-30.1507 197.375ZM16.6868 186.875H25.938L34.063 227.5H24.8122L16.6868 186.875ZM56.6251 221.25C57.4536 221.251 58.2479 221.58 58.8338 222.166C59.4196 222.752 59.7492 223.546 59.7501 224.375V227.5H40.4372L31.5646 183.137C31.5221 182.929 31.4586 182.726 31.3751 182.53L47.2501 194.67V218.125C47.2501 218.954 47.5793 219.749 48.1654 220.335C48.7514 220.921 49.5463 221.25 50.3751 221.25H56.6251ZM61.2802 122.971L63.879 123.837L64.1864 124.375H54.531C51.7889 124.384 49.085 125.018 46.6251 126.23C44.1652 127.442 42.0143 129.199 40.336 131.367L16.0525 162.936C11.3872 159.25 7.57191 154.601 4.86691 149.306L37.172 116.997C38.7921 115.368 40.7192 114.076 42.8419 113.197C44.9645 112.318 47.2405 111.869 49.538 111.875H54.9735C54.4808 114.176 54.851 116.578 56.0138 118.624C57.1767 120.67 59.051 122.217 61.2802 122.971ZM45.288 135.176C46.3809 133.764 47.7815 132.621 49.3833 131.832C50.985 131.043 52.7456 130.63 54.531 130.625H67.7579L73.1153 140H65.3103C63.085 139.998 60.8938 140.546 58.9318 141.596C56.9698 142.646 55.2982 144.165 54.0657 146.018L33.7556 176.484L21.0103 166.738L45.288 135.176ZM88.9599 150.893C88.8131 151.484 88.4964 152.018 88.0491 152.431C87.6017 152.843 87.0432 153.116 86.4427 153.214L74.4896 155.21C73.1911 155.426 71.9525 155.913 70.8545 156.639C69.7564 157.365 68.8234 158.314 68.1161 159.424L49.5661 188.574L38.7298 180.287L59.265 149.484C59.9276 148.488 60.8263 147.672 61.8811 147.107C62.9359 146.543 64.114 146.249 65.3103 146.25H90.1216L88.9599 150.893ZM86.0001 120.625L96.586 128.563L92.0091 140H80.3138L68.7122 119.7C68.3306 119.032 67.7165 118.529 66.9872 118.285L63.2552 117.041C62.4689 116.776 61.811 116.225 61.4116 115.497C61.0123 114.769 60.9005 113.918 61.0985 113.112C61.2087 112.672 61.4087 112.258 61.6862 111.898C61.9637 111.538 62.3125 111.24 62.7109 111.021C63.1093 110.802 63.5486 110.668 64.0012 110.627C64.4538 110.586 64.91 110.639 65.3411 110.783L68.1357 111.715C68.4548 111.821 68.7888 111.875 69.1251 111.875H79.9528L85.2751 119.859C85.4718 120.153 85.7169 120.412 86.0001 120.625ZM29.6943 105.124C33.7248 101.421 38.9999 99.3695 44.4728 99.375H67.6485C69.391 99.3693 71.1002 99.8519 72.5823 100.768C74.0644 101.684 75.2601 102.998 76.0337 104.559L76.5669 105.625H69.6329L67.3196 104.854C66.0712 104.439 64.7509 104.287 63.441 104.405C62.131 104.524 60.8595 104.911 59.7056 105.542C59.6575 105.568 59.6111 105.598 59.5634 105.625H49.538C46.4195 105.617 43.3302 106.227 40.4491 107.42C37.568 108.614 34.9522 110.367 32.7532 112.578L2.29113 143.04C1.15309 139.459 0.515678 135.737 0.396996 131.98L29.6943 105.124ZM-36.2878 132.285L-21.8112 133.734C-21.7077 133.745 -21.6038 133.75 -21.4987 133.75H-5.76863C-5.4079 139.34 -4.0513 144.821 -1.76277 149.934C-1.75613 149.948 -1.7448 149.973 -1.73855 149.987C-1.71511 150.041 -1.69128 150.093 -1.66707 150.144C-1.45574 150.616 -1.22645 151.1 -0.968636 151.621C2.2634 158.145 6.94877 163.84 12.7271 168.27L28.9255 180.655C28.7846 180.636 28.6424 180.625 28.5001 180.625H3.78215L-26.1065 175.191C-24.3366 171.708 -22.4737 167.146 -21.5241 159.527L-27.7257 158.752C-28.7569 167.013 -30.83 170.839 -32.8343 174.539C-33.0788 174.991 -33.3171 175.434 -33.551 175.877C-37.4992 181.781 -42.5005 186.908 -48.305 191.002C-53.6496 194.787 -59.5978 197.638 -65.8964 199.434L-66.1034 199.493C-66.8595 199.707 -67.507 200.199 -67.9168 200.87C-68.3265 201.54 -68.4685 202.341 -68.3143 203.112L-65.1893 218.737C-65.0479 219.445 -64.6652 220.083 -64.1065 220.541C-63.5478 221 -62.8475 221.25 -62.1249 221.25H-55.8749C-55.0464 221.251 -54.2521 221.58 -53.6662 222.166C-53.0804 222.752 -52.7508 223.546 -52.7499 224.375V227.5H-72.0628L-77.5737 199.947L-68.8202 185.358C-68.5288 184.872 -68.3749 184.316 -68.3749 183.75V161.328C-68.3735 154.36 -65.8809 147.622 -61.3471 142.331C-60.6466 141.512 -59.9 140.734 -59.1108 140H-58.9999V139.898C-58.7569 139.675 -58.5112 139.454 -58.2608 139.239C-55.2593 136.654 -51.7642 134.704 -47.9873 133.509C-44.2104 132.314 -40.2303 131.897 -36.2878 132.285ZM-0.0260468 96.6512C-0.691391 99.4977 -2.13934 102.101 -4.20638 104.169C-6.27341 106.236 -8.8772 107.683 -11.7237 108.349C-11.0584 105.502 -9.61043 102.899 -7.54339 100.831C-5.47635 98.7645 -2.87256 97.3165 -0.0260468 96.6512Z" fill="#525252"/>
</g>
<g clip-path="url(#clip2_6_566)">
<path d="M123.256 47.9551L123.256 70.0449C123.256 72.2258 125.03 74 127.211 74L144.789 74C146.97 74 148.744 72.2258 148.744 70.0449L148.744 47.9551C148.744 45.7742 146.97 44 144.789 44L127.211 44C125.03 44 123.256 45.7742 123.256 47.9551ZM144.789 44.8789C146.485 44.8789 147.865 46.2588 147.865 47.9551L147.865 70.0449C147.865 71.7412 146.485 73.1211 144.789 73.1211L127.211 73.1211C125.515 73.1211 124.135 71.7412 124.135 70.0449L124.135 47.9551C124.135 46.2588 125.515 44.8789 127.211 44.8789L144.789 44.8789Z" fill="black"/>
<path d="M125.014 47.9551L125.014 70.0449C125.014 71.2565 125.999 72.2422 127.211 72.2422L129.848 72.2422C130.09 72.2422 130.287 72.0454 130.287 71.8027C130.287 71.56 130.09 71.3633 129.848 71.3633L127.211 71.3633C126.484 71.3633 125.893 70.7719 125.893 70.0449L125.893 63.3945L127.763 63.3945C128.47 63.3945 129.146 63.0395 129.571 62.4448C129.744 62.2038 130.023 62.0663 130.32 62.0768C130.786 62.0934 131.166 62.5016 131.166 62.9867L131.166 71.8027C131.166 72.0454 131.363 72.2422 131.605 72.2422L144.789 72.2422C146.001 72.2422 146.986 71.2565 146.986 70.0449L146.986 47.9551C146.986 46.7435 146.001 45.7578 144.789 45.7578L127.211 45.7578C125.999 45.7578 125.014 46.7435 125.014 47.9551ZM127.211 46.6367L131.166 46.6367L131.166 55.0133C131.166 55.4984 130.786 55.9067 130.32 55.9232C130.023 55.9338 129.744 55.7962 129.571 55.5552C129.146 54.9605 128.47 54.6055 127.763 54.6055L125.893 54.6055L125.893 47.9551C125.893 47.2281 126.484 46.6367 127.211 46.6367ZM136.439 54.5738L136.439 46.6367L139.955 46.6367L139.955 54.5738L136.439 54.5738ZM135.561 54.5738L132.045 54.5738L132.045 46.6367L135.561 46.6367L135.561 54.5738ZM130.351 61.1984C129.759 61.1774 129.2 61.4523 128.856 61.9337C128.596 62.2981 128.187 62.5156 127.763 62.5156L125.893 62.5156L125.893 55.4844L127.763 55.4844C128.187 55.4844 128.596 55.7019 128.856 56.0663C129.2 56.5477 129.759 56.8226 130.351 56.8016C131.137 56.7736 131.799 56.2012 131.99 55.4527L140.01 55.4527C140.201 56.2012 140.863 56.7736 141.649 56.8016C142.241 56.8226 142.799 56.5477 143.144 56.0663C143.404 55.7019 143.813 55.4844 144.237 55.4844L146.107 55.4844L146.107 62.5156L144.237 62.5156C143.813 62.5156 143.404 62.2981 143.144 61.9337C142.8 61.4523 142.241 61.1774 141.649 61.1984C140.863 61.2264 140.201 61.7988 140.01 62.5473L131.99 62.5473C131.799 61.7988 131.137 61.2264 130.351 61.1984ZM139.955 63.4262L139.955 71.3633L136.439 71.3633L136.439 63.4262L139.955 63.4262ZM132.045 63.4262L135.561 63.4262L135.561 71.3633L132.045 71.3633L132.045 63.4262ZM144.789 71.3633L140.834 71.3633L140.834 62.9867C140.834 62.5016 141.214 62.0933 141.68 62.0768C141.977 62.0662 142.256 62.2038 142.429 62.4448C142.854 63.0395 143.53 63.3945 144.237 63.3945L146.107 63.3945L146.107 70.0449C146.107 70.7719 145.516 71.3633 144.789 71.3633ZM146.107 47.9551L146.107 54.6055L144.237 54.6055C143.53 54.6055 142.854 54.9605 142.429 55.5552C142.256 55.7962 141.977 55.9337 141.68 55.9232C141.214 55.9067 140.834 55.4984 140.834 55.0133L140.834 46.6367L144.789 46.6367C145.516 46.6367 146.107 47.2281 146.107 47.9551Z" fill="black"/>
</g>
<defs>
<filter id="filter0_d_6_566" x="0" y="0" width="191" height="254" filterUnits="userSpaceOnUse" color-interpolation-filters="sRGB">
<feFlood flood-opacity="0" result="BackgroundImageFix"/>
<feColorMatrix in="SourceAlpha" type="matrix" values="0 0 0 0 0 0 0 0 0 0 0 0 0 0 0 0 0 0 127 0" result="hardAlpha"/>
<feOffset dy="4"/>
<feGaussianBlur stdDeviation="8"/>
<feColorMatrix type="matrix" values="0 0 0 0 0 0 0 0 0 0 0 0 0 0 0 0 0 0 0.25 0"/>
<feBlend mode="normal" in2="BackgroundImageFix" result="effect1_dropShadow_6_566"/>
<feBlend mode="normal" in="SourceGraphic" in2="effect1_dropShadow_6_566" result="shape"/>
</filter>
<clipPath id="clip0_6_566">
<rect width="60" height="60" fill="white" transform="translate(31 4)"/>
</clipPath>
<clipPath id="clip1_6_566">
<rect width="88" height="144" fill="white" transform="translate(16 90)"/>
</clipPath>
<clipPath id="clip2_6_566">
<rect width="30" height="30" fill="white" transform="translate(121 74) rotate(-90)"/>
</clipPath>
</defs>
</svg>
