<svg width="191" height="254" viewBox="0 0 191 254" fill="none" xmlns="http://www.w3.org/2000/svg">
<g filter="url(#filter0_d_6_631)">
<rect x="16" y="12" width="159" height="222" rx="8" fill="#F4F4F4"/>
</g>
<g clip-path="url(#clip0_6_631)">
<path d="M61.9604 203.422C60.8601 197.884 66.1162 194.636 66.1162 194.636C66.1162 194.636 64.0683 191.674 60.6267 190.911C57.1868 190.148 55.4651 191.102 53.7468 191.818C52.0268 192.535 51.1686 192.535 51.1686 192.535C48.6865 192.535 46.872 189.907 42.143 191.104C38.885 191.926 35.4554 195.687 34.8357 200.176C34.216 204.666 35.5532 210.396 38.1315 214.837C40.7097 219.281 43.336 220.951 45.2001 220.999C47.0643 221.045 48.9251 219.663 51.1686 219.327C53.4138 218.994 54.7956 220.141 56.9979 220.76C59.1916 221.378 59.9606 220.805 62.4874 218.656C65.021 216.507 67.3143 210.343 67.3143 210.343C67.3143 210.343 63.0607 208.963 61.9604 203.422Z" fill="black"/>
<path d="M57.0888 187.329C59.5262 184.845 58.7006 181 58.7006 181C58.7006 181 55.2779 181.601 52.9845 183.987C50.693 186.374 51.0723 190.146 51.0723 190.146C51.0723 190.146 54.6513 189.811 57.0888 187.329Z" fill="black"/>
</g>
<g clip-path="url(#clip1_6_631)">
<path d="M121.256 47.9551L121.256 70.0449C121.256 72.2258 123.03 74 125.211 74L142.789 74C144.97 74 146.744 72.2258 146.744 70.0449L146.744 47.9551C146.744 45.7742 144.97 44 142.789 44L125.211 44C123.03 44 121.256 45.7742 121.256 47.9551ZM142.789 44.8789C144.485 44.8789 145.865 46.2588 145.865 47.9551L145.865 70.0449C145.865 71.7412 144.485 73.1211 142.789 73.1211L125.211 73.1211C123.515 73.1211 122.135 71.7412 122.135 70.0449L122.135 47.9551C122.135 46.2588 123.515 44.8789 125.211 44.8789L142.789 44.8789Z" fill="black"/>
<path d="M123.014 47.9551L123.014 70.0449C123.014 71.2565 123.999 72.2422 125.211 72.2422L127.848 72.2422C128.09 72.2422 128.287 72.0454 128.287 71.8027C128.287 71.56 128.09 71.3633 127.848 71.3633L125.211 71.3633C124.484 71.3633 123.893 70.7719 123.893 70.0449L123.893 63.3945L125.763 63.3945C126.47 63.3945 127.146 63.0395 127.571 62.4448C127.744 62.2038 128.023 62.0663 128.32 62.0768C128.786 62.0934 129.166 62.5016 129.166 62.9867L129.166 71.8027C129.166 72.0454 129.363 72.2422 129.605 72.2422L142.789 72.2422C144.001 72.2422 144.986 71.2565 144.986 70.0449L144.986 47.9551C144.986 46.7435 144.001 45.7578 142.789 45.7578L125.211 45.7578C123.999 45.7578 123.014 46.7435 123.014 47.9551ZM125.211 46.6367L129.166 46.6367L129.166 55.0133C129.166 55.4984 128.786 55.9067 128.32 55.9232C128.023 55.9338 127.744 55.7962 127.571 55.5552C127.146 54.9605 126.47 54.6055 125.763 54.6055L123.893 54.6055L123.893 47.9551C123.893 47.2281 124.484 46.6367 125.211 46.6367ZM134.439 54.5738L134.439 46.6367L137.955 46.6367L137.955 54.5738L134.439 54.5738ZM133.561 54.5738L130.045 54.5738L130.045 46.6367L133.561 46.6367L133.561 54.5738ZM128.351 61.1984C127.759 61.1774 127.2 61.4523 126.856 61.9337C126.596 62.2981 126.187 62.5156 125.763 62.5156L123.893 62.5156L123.893 55.4844L125.763 55.4844C126.187 55.4844 126.596 55.7019 126.856 56.0663C127.2 56.5477 127.759 56.8226 128.351 56.8016C129.137 56.7736 129.799 56.2012 129.99 55.4527L138.01 55.4527C138.201 56.2012 138.863 56.7736 139.649 56.8016C140.241 56.8226 140.799 56.5477 141.144 56.0663C141.404 55.7019 141.813 55.4844 142.237 55.4844L144.107 55.4844L144.107 62.5156L142.237 62.5156C141.813 62.5156 141.404 62.2981 141.144 61.9337C140.8 61.4523 140.241 61.1774 139.649 61.1984C138.863 61.2264 138.201 61.7988 138.01 62.5473L129.99 62.5473C129.799 61.7988 129.137 61.2264 128.351 61.1984V61.1984ZM137.955 63.4262L137.955 71.3633L134.439 71.3633L134.439 63.4262L137.955 63.4262ZM130.045 63.4262L133.561 63.4262L133.561 71.3633L130.045 71.3633L130.045 63.4262ZM142.789 71.3633L138.834 71.3633L138.834 62.9867C138.834 62.5016 139.214 62.0933 139.68 62.0768C139.977 62.0662 140.256 62.2038 140.429 62.4448C140.854 63.0395 141.53 63.3945 142.237 63.3945L144.107 63.3945L144.107 70.0449C144.107 70.7719 143.516 71.3633 142.789 71.3633ZM144.107 47.9551L144.107 54.6055L142.237 54.6055C141.53 54.6055 140.854 54.9605 140.429 55.5552C140.256 55.7962 139.977 55.9337 139.68 55.9232C139.214 55.9067 138.834 55.4984 138.834 55.0133L138.834 46.6367L142.789 46.6367C143.516 46.6367 144.107 47.2281 144.107 47.9551V47.9551Z" fill="black"/>
</g>
<defs>
<filter id="filter0_d_6_631" x="0" y="0" width="191" height="254" filterUnits="userSpaceOnUse" color-interpolation-filters="sRGB">
<feFlood flood-opacity="0" result="BackgroundImageFix"/>
<feColorMatrix in="SourceAlpha" type="matrix" values="0 0 0 0 0 0 0 0 0 0 0 0 0 0 0 0 0 0 127 0" result="hardAlpha"/>
<feOffset dy="4"/>
<feGaussianBlur stdDeviation="8"/>
<feColorMatrix type="matrix" values="0 0 0 0 0 0 0 0 0 0 0 0 0 0 0 0 0 0 0.25 0"/>
<feBlend mode="normal" in2="BackgroundImageFix" result="effect1_dropShadow_6_631"/>
<feBlend mode="normal" in="SourceGraphic" in2="effect1_dropShadow_6_631" result="shape"/>
</filter>
<clipPath id="clip0_6_631">
<rect width="40" height="40" fill="white" transform="translate(31 181)"/>
</clipPath>
<clipPath id="clip1_6_631">
<rect width="30" height="30" fill="white" transform="translate(119 74) rotate(-90)"/>
</clipPath>
</defs>
</svg>
