<svg width="24" height="24" viewBox="0 0 24 24" fill="none" xmlns="http://www.w3.org/2000/svg">
<g id="brand / google">
<path id="brand / google_2" d="M11.9562 10.3562V13.8072H16.7482C16.3022 16.0002 14.4352 17.2602 11.9562 17.2602C9.06875 17.2205 6.74887 14.8685 6.74887 11.9807C6.74887 9.093 9.06875 6.74096 11.9562 6.70122C13.1564 6.69979 14.3197 7.1163 15.2462 7.87922L17.8462 5.27922C14.8638 2.65729 10.5082 2.32006 7.15776 4.45167C3.80732 6.58328 2.26723 10.6714 3.37845 14.4838C4.48968 18.2962 7.98515 20.9167 11.9562 20.9142C16.4232 20.9142 20.4852 17.6652 20.4852 11.9802C20.4783 11.4329 20.4112 10.8879 20.2852 10.3552L11.9562 10.3562Z" fill="#2E3A59"/>
</g>
</svg>
