<svg width="41" height="65" viewBox="0 0 41 65" fill="none" xmlns="http://www.w3.org/2000/svg">
<path d="M20.5001 24.3909C31.7198 24.3909 40.8107 33.4798 40.8107 44.6954C40.8107 55.9111 31.7178 65 20.5001 65C9.28251 65 0.189575 55.9089 0.189574 44.6954C0.189574 33.482 9.28251 24.3909 20.5001 24.3909Z" fill="#E2574C"/>
<path d="M0.189574 20.3103C0.189575 24.864 1.70681 29.0562 4.23961 32.444L4.24162 32.4277C4.8854 31.7614 5.3385 31.0263 6.07963 30.4596L6.14668 34.6843C6.81497 35.3463 7.54206 35.9496 8.29767 36.5183L8.29767 29.0685C8.97799 28.5018 9.5692 27.9778 10.3206 27.5024L10.3206 37.8689C10.9746 38.2487 11.6469 38.6 12.3455 38.9068L12.3455 26.3222C13.0421 25.9932 13.5682 25.6987 14.3056 25.4488L14.3056 39.6521C15.0064 39.8776 15.7232 40.0705 16.4543 40.2168L16.4543 24.8538C17.1571 24.7034 17.8069 24.5878 18.4692 24.5085L18.4692 40.5216C19.1375 40.5886 19.8158 40.6231 20.5004 40.6231L20.5004 24.3929C21.2194 24.3929 21.8855 24.4437 22.5315 24.5168L22.5315 40.5216C23.2201 40.4525 23.8964 40.3509 24.5627 40.2168L24.5627 24.8783C25.2207 25.0367 25.8827 25.2196 26.5693 25.449L26.5693 39.6989C27.2639 39.4837 27.9382 39.2215 28.5962 38.9353L28.5962 26.3222C29.3356 26.6715 29.9265 27.0676 30.6191 27.5042L30.6191 37.9052C31.3299 37.4949 32.0083 37.042 32.6583 36.5506L32.7699 29.0682C33.5355 29.706 33.9966 30.5244 34.6669 31.27C34.6994 31.2295 34.6629 32.4622 34.6244 34.8895C38.4347 31.197 40.8109 26.036 40.8109 20.3106C40.8109 9.09293 31.7178 -1.03567e-06 20.5004 -5.45342e-07C9.28295 -5.50133e-08 0.189574 9.09092 0.189574 20.3103Z" fill="#F4B459"/>
</svg>
