<svg width="56" height="56" viewBox="0 0 56 56" fill="none" xmlns="http://www.w3.org/2000/svg">
<path d="M23.3334 37.3332C24.6167 37.3332 25.6667 36.2832 25.6667 34.9998V20.9998C25.6667 19.7165 24.6167 18.6665 23.3334 18.6665C22.0501 18.6665 21.0001 19.7165 21.0001 20.9998V34.9998C21.0001 36.2832 22.0501 37.3332 23.3334 37.3332ZM28.0001 4.6665C15.1201 4.6665 4.66675 15.1198 4.66675 27.9998C4.66675 40.8798 15.1201 51.3332 28.0001 51.3332C40.8801 51.3332 51.3334 40.8798 51.3334 27.9998C51.3334 15.1198 40.8801 4.6665 28.0001 4.6665ZM28.0001 46.6665C17.7101 46.6665 9.33342 38.2898 9.33342 27.9998C9.33342 17.7098 17.7101 9.33317 28.0001 9.33317C38.2901 9.33317 46.6668 17.7098 46.6668 27.9998C46.6668 38.2898 38.2901 46.6665 28.0001 46.6665ZM32.6667 37.3332C33.9501 37.3332 35.0001 36.2832 35.0001 34.9998V20.9998C35.0001 19.7165 33.9501 18.6665 32.6667 18.6665C31.3834 18.6665 30.3334 19.7165 30.3334 20.9998V34.9998C30.3334 36.2832 31.3834 37.3332 32.6667 37.3332Z" fill="#161616"/>
</svg>
