<svg width="25" height="24" viewBox="0 0 25 24" fill="none" xmlns="http://www.w3.org/2000/svg">
<path d="M11.09 9.17L6.61997 4.7C6.22997 4.31 5.59997 4.31 5.20997 4.7C4.81997 5.09 4.81997 5.72 5.20997 6.11L9.66997 10.57L11.09 9.17ZM15.85 4.85L17.04 6.04L5.19997 17.88C4.80997 18.27 4.80997 18.9 5.19997 19.29C5.58997 19.68 6.21997 19.68 6.60997 19.29L18.46 7.46L19.65 8.65C19.96 8.96 20.5 8.74 20.5 8.29V4.5C20.5 4.22 20.28 4 20 4H16.21C15.76 4 15.54 4.54 15.85 4.85V4.85ZM15.33 13.41L13.92 14.82L17.05 17.95L15.85 19.15C15.54 19.46 15.76 20 16.21 20H20C20.28 20 20.5 19.78 20.5 19.5V15.71C20.5 15.26 19.96 15.04 19.65 15.36L18.46 16.55L15.33 13.41V13.41Z" fill="white"/>
</svg>
