<svg width="48" height="48" viewBox="0 0 48 48" fill="none" xmlns="http://www.w3.org/2000/svg">
<path d="M36.0938 14.9062C36.0913 12.7438 35.2312 10.6707 33.7021 9.14165C32.173 7.61259 30.0999 6.75248 27.9375 6.75H20.0625C17.9001 6.75248 15.827 7.61259 14.2979 9.14165C12.7688 10.6707 11.9087 12.7438 11.9062 14.9062V33.0915C11.9087 35.2539 12.7688 37.327 14.2979 38.8561C15.827 40.3852 17.9001 41.2453 20.0625 41.2477H27.9375C30.0999 41.2453 32.173 40.3852 33.7021 38.8561C35.2312 37.327 36.0913 35.2539 36.0938 33.0915V14.9062ZM34.7812 33.0915C34.7793 34.906 34.0576 36.6455 32.7746 37.9286C31.4915 39.2116 29.752 39.9333 27.9375 39.9352H20.0625C18.248 39.9333 16.5085 39.2116 15.2254 37.9286C13.9424 36.6455 13.2207 34.906 13.2188 33.0915V14.9062C13.2207 13.0918 13.9424 11.3522 15.2254 10.0692C16.5085 8.78616 18.248 8.06449 20.0625 8.0625H27.9375C29.752 8.06449 31.4915 8.78616 32.7746 10.0692C34.0576 11.3522 34.7793 13.0918 34.7812 14.9062V33.0915Z" fill="#0043CE"/>
<path d="M16.3125 24.0443C16.4865 24.0443 16.6535 23.9751 16.7765 23.8521C16.8996 23.729 16.9688 23.5621 16.9688 23.388V19.2132C16.9688 19.0391 16.8996 18.8722 16.7765 18.7491C16.6535 18.6261 16.4865 18.5569 16.3125 18.5569C16.1385 18.5569 15.9715 18.6261 15.8485 18.7491C15.7254 18.8722 15.6562 19.0391 15.6562 19.2132V23.388C15.6562 23.4742 15.6732 23.5596 15.7062 23.6392C15.7392 23.7188 15.7875 23.7911 15.8485 23.8521C15.9094 23.913 15.9817 23.9614 16.0614 23.9943C16.141 24.0273 16.2263 24.0443 16.3125 24.0443Z" fill="#0043CE"/>
<path d="M16.3125 15.5625C16.4865 15.5625 16.6535 15.4934 16.7765 15.3703C16.8996 15.2472 16.9688 15.0803 16.9688 14.9062C16.9696 14.086 17.2959 13.2996 17.8759 12.7196C18.4559 12.1396 19.2423 11.8134 20.0625 11.8125H27.9375C28.1115 11.8125 28.2785 11.7434 28.4015 11.6203C28.5246 11.4972 28.5938 11.3303 28.5938 11.1562C28.5938 10.9822 28.5246 10.8153 28.4015 10.6922C28.2785 10.5691 28.1115 10.5 27.9375 10.5H20.0625C18.8943 10.5014 17.7744 10.9661 16.9483 11.7921C16.1223 12.6181 15.6576 13.7381 15.6562 14.9062C15.6562 15.0803 15.7254 15.2472 15.8485 15.3703C15.9715 15.4934 16.1385 15.5625 16.3125 15.5625Z" fill="#0043CE"/>
<path d="M31.6875 14.25C31.5135 14.25 31.3465 14.3191 31.2235 14.4422C31.1004 14.5653 31.0312 14.7322 31.0312 14.9062V22.3125C31.0312 22.6357 30.9028 22.9457 30.6743 23.1743C30.4457 23.4028 30.1357 23.5312 29.8125 23.5312C29.4893 23.5312 29.1793 23.4028 28.9507 23.1743C28.7222 22.9457 28.5938 22.6357 28.5938 22.3125V16.4062C28.5931 15.8346 28.3657 15.2865 27.9614 14.8823C27.5572 14.4781 27.0092 14.2507 26.4375 14.25H21.5625C20.9908 14.2507 20.4428 14.4781 20.0386 14.8823C19.6343 15.2865 19.4069 15.8346 19.4062 16.4062V23.3876C19.4062 23.5617 19.4754 23.7286 19.5985 23.8517C19.7215 23.9747 19.8885 24.0439 20.0625 24.0439C20.2365 24.0439 20.4035 23.9747 20.5265 23.8517C20.6496 23.7286 20.7188 23.5617 20.7188 23.3876V16.4062C20.719 16.1826 20.808 15.9681 20.9662 15.81C21.1244 15.6518 21.3388 15.5628 21.5625 15.5625H26.4375C26.6612 15.5628 26.8756 15.6518 27.0338 15.81C27.192 15.9681 27.281 16.1826 27.2812 16.4062V22.3125C27.2812 22.9838 27.5479 23.6277 28.0226 24.1024C28.4973 24.5771 29.1412 24.8438 29.8125 24.8438C30.4838 24.8438 31.1277 24.5771 31.6024 24.1024C32.0771 23.6277 32.3438 22.9838 32.3438 22.3125V14.9062C32.3438 14.7322 32.2746 14.5653 32.1515 14.4422C32.0285 14.3191 31.8615 14.25 31.6875 14.25Z" fill="#0043CE"/>
<path d="M31.6875 27.0938C31.5135 27.0938 31.3465 27.1629 31.2235 27.286C31.1004 27.409 31.0312 27.576 31.0312 27.75V33.0915C31.0304 33.9117 30.7041 34.6981 30.1241 35.2781C29.5441 35.8581 28.7577 36.1844 27.9375 36.1852H24C23.826 36.1852 23.659 36.2544 23.536 36.3775C23.4129 36.5005 23.3438 36.6675 23.3438 36.8415C23.3438 37.0155 23.4129 37.1825 23.536 37.3055C23.659 37.4286 23.826 37.4977 24 37.4977H27.9375C29.1057 37.4965 30.2257 37.0318 31.0518 36.2058C31.8778 35.3797 32.3425 34.2597 32.3438 33.0915V27.75C32.3438 27.576 32.2746 27.409 32.1515 27.286C32.0285 27.1629 31.8615 27.0938 31.6875 27.0938Z" fill="#0043CE"/>
<path d="M21.5625 33.7478H26.4375C27.0092 33.7471 27.5572 33.5197 27.9614 33.1154C28.3657 32.7112 28.5931 32.1632 28.5938 31.5915V29.1094C28.5938 28.9353 28.5246 28.7684 28.4015 28.6453C28.2785 28.5223 28.1115 28.4531 27.9375 28.4531C27.7635 28.4531 27.5965 28.5223 27.4735 28.6453C27.3504 28.7684 27.2812 28.9353 27.2812 29.1094V31.5915C27.281 31.8152 27.192 32.0296 27.0338 32.1878C26.8756 32.346 26.6612 32.435 26.4375 32.4353H21.5625C21.3388 32.435 21.1244 32.346 20.9662 32.1878C20.808 32.0296 20.719 31.8152 20.7188 31.5915V29.0156C20.7188 28.3443 20.4521 27.7005 19.9774 27.2258C19.5027 26.7511 18.8588 26.4844 18.1875 26.4844C17.5162 26.4844 16.8723 26.7511 16.3976 27.2258C15.9229 27.7005 15.6562 28.3443 15.6562 29.0156V33.0915C15.6575 34.2597 16.1222 35.3797 16.9482 36.2058C17.7743 37.0318 18.8943 37.4965 20.0625 37.4977C20.2365 37.4977 20.4035 37.4286 20.5265 37.3055C20.6496 37.1825 20.7188 37.0155 20.7188 36.8415C20.7188 36.6675 20.6496 36.5005 20.5265 36.3775C20.4035 36.2544 20.2365 36.1852 20.0625 36.1852C19.2423 36.1844 18.4559 35.8581 17.8759 35.2781C17.2959 34.6981 16.9696 33.9117 16.9688 33.0915V29.0156C16.9688 28.6924 17.0972 28.3824 17.3257 28.1538C17.5543 27.9253 17.8643 27.7969 18.1875 27.7969C18.5107 27.7969 18.8207 27.9253 19.0493 28.1538C19.2778 28.3824 19.4062 28.6924 19.4062 29.0156V31.5915C19.4069 32.1632 19.6343 32.7112 20.0386 33.1154C20.4428 33.5197 20.9908 33.7471 21.5625 33.7478Z" fill="#0043CE"/>
<path d="M24.6562 29.3415V18.6562C24.6562 18.4822 24.5871 18.3153 24.464 18.1922C24.341 18.0691 24.174 18 24 18C23.826 18 23.659 18.0691 23.536 18.1922C23.4129 18.3153 23.3438 18.4822 23.3438 18.6562V29.3415C23.3438 29.5155 23.4129 29.6825 23.536 29.8055C23.659 29.9286 23.826 29.9978 24 29.9978C24.174 29.9978 24.341 29.9286 24.464 29.8055C24.5871 29.6825 24.6562 29.5155 24.6562 29.3415Z" fill="#0043CE"/>
<path d="M47.3427 -1.04797e-05H35.8583C35.7721 -5.97756e-05 35.6867 0.016881 35.6071 0.0498432C35.5274 0.0828054 35.4551 0.131142 35.3941 0.192091C35.3332 0.253039 35.2848 0.325403 35.2519 0.405045C35.2189 0.484687 35.202 0.570046 35.202 0.65624V3.65624C35.202 3.74243 35.2189 3.82779 35.2519 3.90743C35.2848 3.98708 35.3332 4.05944 35.3941 4.12039C35.4551 4.18134 35.5274 4.22967 35.6071 4.26264C35.6867 4.2956 35.7721 4.31254 35.8583 4.31249H43.6875V12.1406C43.6875 12.2268 43.7044 12.3122 43.7374 12.3918C43.7703 12.4715 43.8187 12.5438 43.8796 12.6048C43.9406 12.6657 44.0129 12.714 44.0926 12.747C44.1722 12.78 44.2576 12.7969 44.3438 12.7969H47.3438C47.5178 12.7969 47.6847 12.7277 47.8078 12.6047C47.9309 12.4816 48 12.3147 48 12.1406V0.65624C48 0.569965 47.983 0.484537 47.95 0.404843C47.9169 0.32515 47.8685 0.252756 47.8074 0.191802C47.7464 0.130849 47.6739 0.0825337 47.5941 0.0496203C47.5144 0.0167069 47.4289 -0.000158379 47.3427 -1.04797e-05ZM46.6875 11.4844H45V3.65624C45 3.56996 44.983 3.48454 44.95 3.40484C44.9169 3.32515 44.8685 3.25276 44.8074 3.1918C44.7464 3.13085 44.6739 3.08253 44.5941 3.04962C44.5144 3.01671 44.4289 2.99984 44.3427 2.99999H36.5145V1.31249H46.6875V11.4844Z" fill="#0043CE"/>
<path d="M47.3427 35.2013H44.3427C44.2565 35.2012 44.1711 35.2182 44.0915 35.2511C44.0118 35.2841 43.9395 35.3324 43.8785 35.3934C43.8176 35.4543 43.7692 35.5267 43.7363 35.6063C43.7033 35.686 43.6864 35.7713 43.6864 35.8575V43.6856H35.8583C35.7721 43.6856 35.6867 43.7025 35.6071 43.7355C35.5274 43.7685 35.4551 43.8168 35.3941 43.8777C35.3332 43.9387 35.2848 44.0111 35.2519 44.0907C35.2189 44.1703 35.202 44.2557 35.202 44.3419V47.3419C35.202 47.4281 35.2189 47.5134 35.2519 47.5931C35.2848 47.6727 35.3332 47.7451 35.3941 47.806C35.4551 47.867 35.5274 47.9153 35.6071 47.9483C35.6867 47.9812 35.7721 47.9982 35.8583 47.9981H47.3427C47.5167 47.9981 47.6836 47.929 47.8067 47.8059C47.9298 47.6829 47.9989 47.5159 47.9989 47.3419V35.8575C47.9989 35.6835 47.9298 35.5165 47.8067 35.3935C47.6836 35.2704 47.5167 35.2013 47.3427 35.2013ZM46.6864 46.6856H36.5145V44.9981H44.3427C44.5167 44.9981 44.6836 44.929 44.8067 44.8059C44.9298 44.6829 44.9989 44.5159 44.9989 44.3419V36.5138H46.6864V46.6856Z" fill="#0043CE"/>
<path d="M0.657375 12.7969H3.65738C3.74357 12.7969 3.82893 12.78 3.90857 12.747C3.98821 12.7141 4.06058 12.6657 4.12152 12.6048C4.18247 12.5438 4.23081 12.4715 4.26377 12.3918C4.29673 12.3122 4.31367 12.2268 4.31363 12.1406V4.3125H12.1417C12.2279 4.31255 12.3133 4.29561 12.3929 4.26264C12.4726 4.22968 12.545 4.18134 12.6059 4.1204C12.6668 4.05945 12.7152 3.98708 12.7481 3.90744C12.7811 3.8278 12.798 3.74244 12.798 3.65625V0.656247C12.798 0.570053 12.7811 0.484695 12.7481 0.405053C12.7152 0.325411 12.6668 0.253047 12.6059 0.192098C12.545 0.13115 12.4726 0.082813 12.3929 0.0498508C12.3133 0.0168886 12.2279 -5.21462e-05 12.1417 -2.85032e-06H0.657375C0.5711 -0.00015075 0.485643 0.0167145 0.405894 0.0496279C0.326144 0.0825414 0.253666 0.130857 0.192609 0.19181C0.131551 0.252763 0.0831114 0.325158 0.0500615 0.404851C0.0170115 0.484544 -1.2677e-07 0.569972 0 0.656247L0 12.1406C-1.2677e-07 12.2269 0.0170115 12.3123 0.0500615 12.392C0.0831114 12.4717 0.131551 12.5441 0.192609 12.6051C0.253666 12.666 0.326144 12.7143 0.405894 12.7472C0.485643 12.7802 0.5711 12.797 0.657375 12.7969ZM1.3125 1.3125H11.4855V3H3.65738C3.5711 2.99985 3.48564 3.01671 3.40589 3.04963C3.32614 3.08254 3.25367 3.13086 3.19261 3.19181C3.13155 3.25276 3.08311 3.32516 3.05006 3.40485C3.01701 3.48454 3 3.56997 3 3.65625V11.4844H1.3125V1.3125Z" fill="#0043CE"/>
<path d="M12.1417 43.6856H4.3125V35.8575C4.31255 35.7713 4.29561 35.686 4.26265 35.6063C4.22968 35.5267 4.18135 35.4543 4.1204 35.3934C4.05945 35.3324 3.98709 35.2841 3.90744 35.2511C3.8278 35.2182 3.74244 35.2012 3.65625 35.2013H0.65625C0.482202 35.2013 0.315282 35.2704 0.192211 35.3935C0.0691404 35.5165 0 35.6835 0 35.8575L0 47.3419C0 47.5159 0.0691404 47.6829 0.192211 47.8059C0.315282 47.929 0.482202 47.9981 0.65625 47.9981H12.1417C12.2279 47.9982 12.3133 47.9812 12.3929 47.9483C12.4726 47.9153 12.545 47.867 12.6059 47.806C12.6668 47.7451 12.7152 47.6727 12.7481 47.5931C12.7811 47.5134 12.798 47.4281 12.798 47.3419V44.3419C12.798 44.2557 12.7811 44.1703 12.7481 44.0907C12.7152 44.0111 12.6668 43.9387 12.6059 43.8777C12.545 43.8168 12.4726 43.7685 12.3929 43.7355C12.3133 43.7025 12.2279 43.6856 12.1417 43.6856ZM11.4855 46.6856H1.3125V36.5138H3V44.3419C3 44.5159 3.06914 44.6829 3.19221 44.8059C3.31528 44.929 3.4822 44.9981 3.65625 44.9981H11.4855V46.6856Z" fill="#0043CE"/>
</svg>
